<svg width="9" height="11" viewBox="0 0 9 11" fill="none" xmlns="http://www.w3.org/2000/svg">
<path d="M1.47425 10.0441C1.32124 10.0441 1.20101 10.0004 1.11358 9.91296C1.02614 9.82552 0.982422 9.7053 0.982422 9.55229C0.982422 9.37741 1.09172 9.2244 1.31031 9.09325L7.73685 4.9619V5.48651L1.31031 1.35516C1.09172 1.22401 0.982422 1.071 0.982422 0.896124C0.982422 0.743111 1.02614 0.622887 1.11358 0.535452C1.20101 0.448016 1.32124 0.404297 1.47425 0.404297C1.58354 0.404297 1.70377 0.448016 1.83492 0.535452L8.35983 4.76517C8.55656 4.89632 8.65493 5.04933 8.65493 5.22421C8.65493 5.39908 8.55656 5.55209 8.35983 5.68324L1.83492 9.91296C1.70377 10.0004 1.58354 10.0441 1.47425 10.0441Z" fill="black"/>
</svg>
