<?xml version="1.0" encoding="utf-8"?>
<!-- Generator: Adobe Illustrator 24.3.0, SVG Export Plug-In . SVG Version: 6.00 Build 0)  -->
<svg version="1.1" id="Layer_1" xmlns="http://www.w3.org/2000/svg" xmlns:xlink="http://www.w3.org/1999/xlink" x="0px" y="0px"
	 viewBox="0 0 1200 1200" style="enable-background:new 0 0 1200 1200;" xml:space="preserve">
<g>
	<path d="M50.0029297,988.9941406c0-17,13-30,30-30s30,13,30,30c0,70,42,100,100,100c32,0,68-7,105-19c-34-21-66-46-95-73
		c-5-6-9-14-9-22c0-17,13-30,30-30c8,0,15,3,21,8c39,36,81,64,126,87c241-115,539-413,653-653.0004883c-79-164-247-278-441-278
		c-270,0-490,220-490,490c0,64.0004883,12,125.0004883,35,182.0004883c7,19-6,41-28,41c-13,0-23-8-28-19
		c-25-62-39-132-39-204.0004883c0-303,247-550,550-550c199,0,374,107,471,266c12-38,19-74,19-106c0-58-30-100-100-100
		c-17,0-30-13-30-30s13-30,30-30c108,0,160,74,160,160c0,52-16,113-44,176c28,66,44,138,44,214
		c0,303.0004883-247,550.0004883-550,550.0004883c-76,0-149-15-214-44c-64,28-123,44-176,44
		C124.0029297,1148.9941406,50.0029297,1096.9941406,50.0029297,988.9941406z M1069.0029297,457.9936523
		c-126,229.0004883-381,484.0004883-609,611.0004883c44,13,91,20,140,20c270,0,490-220,490-490.0004883
		C1090.0029297,549.9936523,1083.0029297,502.9936523,1069.0029297,457.9936523z"/>
</g>
</svg>