<?xml version="1.0" encoding="utf-8"?>
<!-- Generator: Adobe Illustrator 24.3.0, SVG Export Plug-In . SVG Version: 6.00 Build 0)  -->
<svg version="1.1" id="Layer_1" xmlns="http://www.w3.org/2000/svg" xmlns:xlink="http://www.w3.org/1999/xlink" x="0px" y="0px"
	 viewBox="0 0 1200 1200" style="enable-background:new 0 0 1200 1200;" xml:space="preserve">
<g>
	<path d="M49.9965935,988.9941406V208.9936523c0-90,70-160,160-160h780c90,0,160,70,160,160v780.0004883c0,90-70,160-160,160h-780
		C119.9965897,1148.9941406,49.9965935,1078.9941406,49.9965935,988.9941406z M989.996582,1088.9941406c57,0,100-43,100-100
		V208.9936523c0-57-43-100-100-100h-780c-57,0-100.0000076,43-100.0000076,100v780.0004883c0,57,43.0000076,100,100.0000076,100
		H989.996582z M314.996582,646.9941406l53-78.0004883c31-46,78-65,122-65s94,20,126,65l18,26
		c19,28.0004883,46,39.0004883,76,39.0004883s52-9,72-39.0004883l53-78c6-8,15-13,25-13c26,0,37,29,25,47l-53,78.0004883
		c-31,46-78,65-122,65s-94-20-126-65l-18-26c-19-28.0004883-46-39.0004883-76-39.0004883s-52,9-72,39.0004883l-53,78
		c-6,8-15,13-25,13C313.996582,693.9941406,302.996582,664.9941406,314.996582,646.9941406z"/>
</g>
</svg>