<?xml version="1.0" encoding="utf-8"?>
<!-- Generator: Adobe Illustrator 24.3.0, SVG Export Plug-In . SVG Version: 6.00 Build 0)  -->
<svg version="1.1" id="Layer_1" xmlns="http://www.w3.org/2000/svg" xmlns:xlink="http://www.w3.org/1999/xlink" x="0px" y="0px"
	 viewBox="0 0 1200 1200" style="enable-background:new 0 0 1200 1200;" xml:space="preserve">
<g>
	<path d="M49.9965935,598.9936523c0-303,246.9999847-550,550-550s550,247,550,550c0,303.0004883-247,550.0004883-550,550.0004883
		S49.9965935,901.9941406,49.9965935,598.9936523z M1089.996582,598.9936523c0-270-220-490-490-490s-490,220-490,490
		c0,270.0004883,220,490.0004883,490,490.0004883S1089.996582,868.9941406,1089.996582,598.9936523z M314.996582,646.9941406
		l53-78.0004883c31-46,78-65,122-65s94,20,126,65l18,26c19,28.0004883,46,39.0004883,76,39.0004883s52-9,72-39.0004883l53-78
		c6-8,15-13,25-13c26,0,37,29,25,47l-53,78.0004883c-31,46-78,65-122,65s-94-20-126-65l-18-26
		c-19-28.0004883-46-39.0004883-76-39.0004883s-52,9-72,39.0004883l-53,78c-6,8-15,13-25,13
		C313.996582,693.9941406,302.996582,664.9941406,314.996582,646.9941406z"/>
</g>
</svg>