<svg width="19" height="19" viewBox="0 0 19 19" fill="none" xmlns="http://www.w3.org/2000/svg">
<mask id="path-1-inside-1_441_1661" fill="white">
<path fill-rule="evenodd" clip-rule="evenodd" d="M17.867 13.9985C18.5073 12.7657 18.8691 11.365 18.8691 9.87984C18.8691 4.93735 14.8624 0.930664 9.91988 0.930664C4.97739 0.930664 0.970703 4.93735 0.970703 9.87984C0.970703 14.8223 4.97739 18.829 9.91988 18.829C11.515 18.829 13.0127 18.4117 14.3097 17.6802L18.2839 18.7451C18.6933 18.8548 19.0679 18.4802 18.9582 18.0708L17.867 13.9985Z"/>
</mask>
<path d="M17.867 13.9985L16.8898 13.491L16.6928 13.8705L16.8034 14.2835L17.867 13.9985ZM14.3097 17.6802L14.5946 16.6166L14.1604 16.5002L13.7687 16.7211L14.3097 17.6802ZM18.2839 18.7451L18.5689 17.6815L18.2839 18.7451ZM18.9582 18.0708L20.0218 17.7858H20.0218L18.9582 18.0708ZM17.7679 9.87984C17.7679 11.1842 17.4506 12.4113 16.8898 13.491L18.8442 14.506C19.564 13.1201 19.9702 11.5458 19.9702 9.87984H17.7679ZM9.91988 2.03179C14.2542 2.03179 17.7679 5.54548 17.7679 9.87984H19.9702C19.9702 4.32921 15.4705 -0.170463 9.91988 -0.170463V2.03179ZM2.07183 9.87984C2.07183 5.54548 5.58552 2.03179 9.91988 2.03179V-0.170463C4.36925 -0.170463 -0.130424 4.32921 -0.130424 9.87984H2.07183ZM9.91988 17.7279C5.58552 17.7279 2.07183 14.2142 2.07183 9.87984H-0.130424C-0.130424 15.4305 4.36925 19.9301 9.91988 19.9301V17.7279ZM13.7687 16.7211C12.6326 17.3619 11.3206 17.7279 9.91988 17.7279V19.9301C11.7094 19.9301 13.3928 19.4615 14.8506 18.6393L13.7687 16.7211ZM18.5689 17.6815L14.5946 16.6166L14.0247 18.7438L17.9989 19.8087L18.5689 17.6815ZM17.8946 18.3558C17.7849 17.9464 18.1595 17.5718 18.5689 17.6815L17.9989 19.8087C19.2271 20.1378 20.3509 19.014 20.0218 17.7858L17.8946 18.3558ZM16.8034 14.2835L17.8946 18.3558L20.0218 17.7858L18.9306 13.7135L16.8034 14.2835Z" fill="black" mask="url(#path-1-inside-1_441_1661)"/>
</svg>
