<svg width="20" height="19" viewBox="0 0 20 19" fill="none" xmlns="http://www.w3.org/2000/svg">
<g id="Clock Regular" clip-path="url(#clip0_395_2551)">
<path id="Vector" d="M4.50782 12.9159C4.37384 12.9832 4.23372 12.9832 4.08886 12.9159C3.94352 12.8487 3.87109 12.7261 3.87109 12.5472C3.87109 12.3796 3.93832 12.2565 4.07229 12.1784L9.53768 9.02649V2.73976C9.53768 2.61668 9.57981 2.51631 9.6636 2.4382C9.74739 2.36009 9.84491 2.3208 9.95711 2.3208C10.0802 2.3208 10.1806 2.36009 10.2587 2.4382C10.3368 2.51631 10.3761 2.61715 10.3761 2.73976V9.27787C10.3761 9.44545 10.3088 9.56854 10.1749 9.64665L4.50829 12.9159H4.50782Z" fill="black"/>
<path id="Vector_2" d="M10.0314 17.9686C14.8489 17.9686 18.7543 14.0633 18.7543 9.2458C18.7543 4.4283 14.8489 0.522949 10.0314 0.522949C5.21395 0.522949 1.30859 4.4283 1.30859 9.2458C1.30859 14.0633 5.21395 17.9686 10.0314 17.9686Z" stroke="black" stroke-width="0.79531" stroke-miterlimit="10"/>
</g>
<defs>
<clipPath id="clip0_395_2551">
<rect width="18.241" height="18.241" fill="white" transform="translate(0.911133 0.125488)"/>
</clipPath>
</defs>
</svg>
