<svg width="20" height="20" viewBox="0 0 20 20" fill="none" xmlns="http://www.w3.org/2000/svg">
<g clip-path="url(#clip0_413_688)">
<path d="M4.58008 13.7558C4.44611 13.823 4.30598 13.823 4.16112 13.7558C4.01579 13.6886 3.94336 13.566 3.94336 13.387C3.94336 13.2194 4.01058 13.0963 4.14455 13.0182L9.60994 9.86634V3.5796C9.60994 3.45652 9.65208 3.35616 9.73587 3.27805C9.81966 3.19994 9.91718 3.16064 10.0294 3.16064C10.1525 3.16064 10.2528 3.19994 10.3309 3.27805C10.409 3.35616 10.4483 3.45699 10.4483 3.5796V10.1177C10.4483 10.2853 10.3811 10.4084 10.2471 10.4865L4.58055 13.7558H4.58008Z" fill="black"/>
<path d="M10.1037 18.8085C14.9212 18.8085 18.8266 14.9031 18.8266 10.0856C18.8266 5.26815 14.9212 1.36279 10.1037 1.36279C5.28621 1.36279 1.38086 5.26815 1.38086 10.0856C1.38086 14.9031 5.28621 18.8085 10.1037 18.8085Z" stroke="black" stroke-width="0.79531" stroke-miterlimit="10"/>
</g>
<defs>
<clipPath id="clip0_413_688">
<rect width="18.241" height="18.241" fill="white" transform="translate(0.983398 0.965332)"/>
</clipPath>
</defs>
</svg>

