<svg width="19" height="18" viewBox="0 0 19 18" fill="none" xmlns="http://www.w3.org/2000/svg">
<path d="M16.7058 17.9051H3.07953C1.91643 17.9051 0.970703 16.9589 0.970703 15.7962V6.38763C0.970703 5.22494 1.91684 4.27881 3.07953 4.27881H16.7058C17.8685 4.27881 18.8146 5.22494 18.8146 6.38763V15.7962C18.8146 16.9589 17.8685 17.9051 16.7058 17.9051ZM3.07953 5.25211C2.45337 5.25211 1.94401 5.76147 1.94401 6.38763V15.7962C1.94401 16.4224 2.45337 16.9318 3.07953 16.9318H16.7054C17.3315 16.9318 17.8409 16.4224 17.8409 15.7962V6.38763C17.8409 5.76147 17.3315 5.25211 16.7054 5.25211H3.07953Z" fill="black"/>
<path d="M18.3275 7.3613C18.0587 7.3613 17.8409 7.14353 17.8409 6.87465V4.27877C17.8409 3.65301 17.3315 3.14325 16.7058 3.14325L6.23993 3.14V2.17035C6.23993 1.8666 6.12151 1.58109 5.90657 1.36656C5.69204 1.15243 5.40735 1.03483 5.10441 1.03483H5.10238C4.89677 1.03483 4.72441 1.03523 4.62262 1.03564C4.24668 1.03564 4.07392 1.03564 3.88413 1.03645C3.69879 1.03726 3.49805 1.03767 3.07953 1.03767C2.77618 1.03767 2.49108 1.15568 2.27655 1.37021C2.06202 1.58474 1.94401 1.86984 1.94401 2.17278V6.87465C1.94401 7.14353 1.72623 7.3613 1.45736 7.3613C1.18848 7.3613 0.970703 7.14353 0.970703 6.87465V2.17278C0.970703 1.60948 1.1901 1.07984 1.58835 0.681599C1.98659 0.283761 2.51582 0.0643622 3.07912 0.0643622C3.49643 0.0643622 3.69595 0.0635512 3.88048 0.0631456C4.07108 0.0623345 4.24546 0.061929 4.62303 0.0623345C4.72441 0.0623345 4.89555 0.0623345 5.09994 0.0615234H5.104C5.66649 0.0615234 6.19532 0.280111 6.59356 0.677949C6.9918 1.07579 7.21161 1.60421 7.21282 2.1671L16.7058 2.16994C17.8681 2.16994 18.8138 3.11648 18.8138 4.27877V6.87465C18.8138 7.14353 18.596 7.3613 18.3271 7.3613H18.3275Z" fill="black"/>
</svg>
