<svg width="20" height="19" viewBox="0 0 20 19" fill="none" xmlns="http://www.w3.org/2000/svg">
<g id="Forum Regular" clip-path="url(#clip0_395_2536)">
<path id="Vector" d="M3.42368 4.45087C3.42368 3.7971 3.94584 3.26689 4.59013 3.26689C5.44935 3.26689 6.14572 3.97368 6.14572 4.84521C6.14572 6.0074 5.21739 6.94994 4.07176 6.94994C2.54458 6.94994 1.30664 5.69354 1.30664 4.1441C1.30664 2.07772 2.95738 0.402832 4.99347 0.402832H15.8149C17.851 0.402832 19.5017 2.07772 19.5017 4.1441C19.5017 5.69401 18.2638 6.94994 16.7366 6.94994C15.5915 6.94994 14.6626 6.00787 14.6626 4.84521C14.6626 3.97368 15.359 3.26689 16.2182 3.26689C16.8625 3.26689 17.3847 3.7971 17.3847 4.45087" stroke="black" stroke-width="0.804778" stroke-miterlimit="10" stroke-linecap="round"/>
<path id="Vector_2" d="M4.38916 3.28027H16.2038" stroke="black" stroke-width="0.804778" stroke-miterlimit="10" stroke-linecap="round"/>
<path id="Vector_3" d="M6.146 5.08447H14.6634" stroke="black" stroke-width="0.804778" stroke-miterlimit="10" stroke-linecap="round"/>
<path id="Vector_4" d="M4.03467 6.9502H16.7743" stroke="black" stroke-width="0.785369" stroke-miterlimit="10" stroke-linecap="round"/>
<path id="Vector_5" d="M4.49707 6.9502H16.3117V8.2937C16.3117 8.73775 15.951 9.09848 15.5069 9.09848H5.30185C4.8578 9.09848 4.49707 8.73775 4.49707 8.2937V6.9502Z" stroke="black" stroke-width="0.804778" stroke-miterlimit="10" stroke-linecap="round"/>
<path id="Vector_6" d="M5.90967 9.09814V17.8125" stroke="black" stroke-width="0.804778" stroke-miterlimit="10" stroke-linecap="round"/>
<path id="Vector_7" d="M14.7021 9.09814V17.8125" stroke="black" stroke-width="0.804778" stroke-miterlimit="10" stroke-linecap="round"/>
<path id="Vector_8" d="M8.25146 9.09814V17.8125" stroke="black" stroke-width="0.804778" stroke-miterlimit="10" stroke-linecap="round"/>
<path id="Vector_9" d="M10.3062 9.09814V17.8125" stroke="black" stroke-width="0.804778" stroke-miterlimit="10" stroke-linecap="round"/>
<path id="Vector_10" d="M12.6133 9.09814V17.8125" stroke="black" stroke-width="0.804778" stroke-miterlimit="10" stroke-linecap="round"/>
</g>
<defs>
<clipPath id="clip0_395_2536">
<rect width="18.9999" height="18.215" fill="white" transform="translate(0.904297)"/>
</clipPath>
</defs>
</svg>
