<svg width="19" height="19" viewBox="0 0 19 19" fill="none" xmlns="http://www.w3.org/2000/svg">
<g id="Landscape Regular" clip-path="url(#clip0_395_2554)">
<path id="Vector" d="M4.74197 0.158203V0.962981C4.77889 0.962981 4.81677 0.964401 4.85511 0.967242C5.03453 0.981917 5.27123 1.04299 5.51408 1.38099C5.59835 1.50218 5.67882 1.62811 5.76451 1.7616C5.87718 1.93724 5.99316 2.11855 6.12335 2.29702C6.45757 2.77089 6.92244 3.11647 7.5052 3.32335L7.571 3.34749C7.71917 3.40146 7.87255 3.45732 7.97907 3.51602L7.98996 3.52218L8.00085 3.52786C8.38903 3.72716 8.57792 4.0041 8.57792 4.37429C8.57792 4.99918 8.37578 5.21694 8.02688 5.38169C7.0744 5.82526 6.42727 6.6111 6.15412 7.65447C6.01352 8.17947 5.70628 8.44552 5.24046 8.44552C5.22673 8.44552 5.21253 8.44552 5.19833 8.44505H5.19312H5.18791C4.786 8.437 4.52752 8.2661 4.34999 7.89307C3.99826 7.14888 3.56179 6.64945 2.97761 6.32186C2.7234 6.17557 2.43888 6.06007 2.08289 5.95829H2.08194L2.08099 5.95781C1.67813 5.8442 1.39883 5.52228 1.36948 5.13789V5.13647V5.13505C1.31361 4.43678 1.60239 4.18919 1.89447 4.04055C2.89571 3.56005 3.54096 2.75953 3.81316 1.6603V1.65888L3.81411 1.65746C3.92299 1.20962 4.25295 0.962981 4.74292 0.962981V0.158203M4.74197 0.158203C3.88417 0.158203 3.22899 0.653852 3.03111 1.46715C2.81997 2.32069 2.32716 2.94273 1.53848 3.31861C0.81986 3.68029 0.496055 4.31654 0.566591 5.19895C0.622926 5.93651 1.14414 6.52968 1.86228 6.73229C2.11555 6.80472 2.35509 6.89135 2.58043 7.02154C3.07324 7.29658 3.38331 7.73022 3.62238 8.23675C3.93198 8.88768 4.4674 9.23515 5.17134 9.24935C5.19454 9.2503 5.21726 9.2503 5.23998 9.2503C6.07837 9.2503 6.69853 8.73335 6.93144 7.8604C7.14257 7.05042 7.62165 6.45725 8.36773 6.10977C9.04374 5.79165 9.38175 5.25623 9.38175 4.37382C9.38175 3.7229 9.04374 3.1586 8.36773 2.8116C8.18452 2.7103 7.97339 2.63787 7.77645 2.56591C7.36791 2.42105 7.0299 2.18956 6.77664 1.82835C6.5655 1.53911 6.3823 1.22098 6.17116 0.917061C5.86108 0.482955 5.45301 0.208383 4.9176 0.164831C4.85795 0.160097 4.79925 0.158203 4.74102 0.158203H4.74197Z" fill="black"/>
<path id="Vector_2" d="M14.2277 8.24999V9.05476C14.6069 9.05476 14.8502 9.21761 15.0154 9.58166C15.4699 10.5867 16.2188 11.2319 17.3062 11.5543C17.7436 11.6873 17.9979 11.9136 18.0002 12.6687C17.9898 13.019 17.8421 13.2524 17.5353 13.4029L17.5339 13.4039L17.5325 13.4048C16.5365 13.8986 15.8666 14.7109 15.5419 15.8187C15.4131 16.2357 15.1224 16.4734 14.7016 16.5061C14.6722 16.5084 14.6429 16.5094 14.6145 16.5094C14.2391 16.5094 13.9361 16.3129 13.7818 15.9706C13.3391 14.9552 12.567 14.2882 11.4872 13.9871L11.481 13.9852L11.4749 13.9838C11.0327 13.8683 10.8685 13.5487 10.8088 13.3012C10.7203 12.9347 10.8173 12.5229 11.0398 12.317C11.1369 12.2355 11.2585 12.1394 11.3622 12.0902L11.3679 12.0874L11.3736 12.0845C12.2849 11.6343 12.9211 10.8617 13.2127 9.85007L13.2137 9.84629L13.2146 9.8425C13.3732 9.273 13.6667 9.1395 13.9332 9.08553C14.0364 9.06565 14.1354 9.05571 14.2272 9.05571V8.25093M14.2277 8.24999C14.0809 8.24999 13.9299 8.26561 13.777 8.29543C13.0589 8.44029 12.6361 8.91748 12.4392 9.62616C12.2139 10.4073 11.749 11.0004 11.0166 11.3621C10.8334 11.4487 10.6644 11.5789 10.5096 11.7091C9.63668 12.4902 9.77728 14.371 11.2699 14.7616C12.1007 14.9931 12.6925 15.4849 13.0442 16.2949C13.333 16.9425 13.9285 17.3132 14.613 17.3132C14.6623 17.3132 14.7125 17.3113 14.7626 17.3075C15.5092 17.2498 16.0863 16.7868 16.3116 16.0488C16.5649 15.181 17.0719 14.5296 17.889 14.1249C18.5086 13.8209 18.7903 13.286 18.8045 12.6782C18.8045 11.6509 18.396 11.0435 17.5372 10.7831C16.7064 10.5374 16.1147 10.0598 15.7487 9.2498C15.4282 8.54397 14.8658 8.24951 14.2277 8.24951V8.24999Z" fill="black"/>
<path id="Vector_3" d="M15.3695 0.804778C15.7861 0.804778 16.2103 1.20669 16.2534 1.63749C16.2548 1.69903 16.2595 1.75158 16.2629 1.79134C16.2643 1.80838 16.2662 1.83111 16.2666 1.84105C16.2363 2.01337 16.2042 2.17527 16.1606 2.31823L16.1596 2.32202L16.1587 2.32581C15.8624 3.33415 15.9693 4.28284 16.4768 5.14537C16.6884 5.50468 16.6851 5.84032 16.4669 6.20247L16.4655 6.20484L16.464 6.20721C16.2695 6.5348 16.0006 6.68108 15.593 6.68108C15.5646 6.68108 15.4993 6.67445 15.3819 6.6309L15.3714 6.62711L15.361 6.62332C14.9378 6.47846 14.5165 6.40509 14.1084 6.40509C13.4504 6.40509 12.8198 6.5935 12.2342 6.96512C12.1306 7.02997 12.0217 7.06169 11.901 7.06169C11.4493 7.06169 10.9811 6.62332 10.9447 6.28153C10.9291 6.10069 10.9187 5.87535 10.9778 5.72387C11.3371 4.80121 11.2794 3.85631 10.8022 2.83424L10.7994 2.82856L10.7965 2.82288C10.6573 2.53694 10.5972 2.34001 10.5963 2.16722C10.6053 1.61666 11.0365 1.16977 11.5596 1.16977C11.6396 1.16977 11.7206 1.18066 11.8001 1.20196C11.8555 1.21806 11.9109 1.23462 11.9668 1.25167C12.2953 1.35061 12.6679 1.46328 13.101 1.46328C13.7122 1.46328 14.2107 1.26587 14.6585 1.05237L14.6694 1.04716L14.6798 1.04195C14.9018 0.927862 15.103 0.851171 15.2777 0.813299C15.308 0.808565 15.3388 0.806198 15.37 0.806198M15.3695 0C15.2895 0 15.2086 0.00662758 15.1286 0.0208295C14.8469 0.0785842 14.5652 0.194567 14.312 0.324752C13.9176 0.512691 13.5375 0.657551 13.101 0.657551C12.7209 0.657551 12.3687 0.527366 12.0165 0.426059C11.8631 0.383926 11.7097 0.364044 11.5592 0.364044C10.6214 0.364044 9.80332 1.13947 9.79102 2.16201C9.79102 2.52369 9.91789 2.85649 10.0727 3.17461C10.4107 3.89797 10.5376 4.63552 10.2275 5.4313C10.1148 5.72055 10.1148 6.03868 10.1432 6.35727C10.219 7.12465 11.0436 7.86599 11.9005 7.86599C12.1585 7.86599 12.4198 7.79877 12.6641 7.64492C13.1313 7.3481 13.6137 7.20939 14.1084 7.20939C14.4341 7.20939 14.765 7.26951 15.1007 7.38455C15.2555 7.4423 15.4245 7.48586 15.5935 7.48586C16.2553 7.48586 16.8044 7.21081 17.1566 6.61764C17.5226 6.0098 17.5368 5.35887 17.1708 4.73683C16.7623 4.04235 16.706 3.319 16.9313 2.55257C17.0018 2.32107 17.044 2.07538 17.0861 1.82921C17.0861 1.82921 17.0719 1.82921 17.0719 1.84389C17.0719 1.75726 17.0577 1.68483 17.0577 1.59819C16.9933 0.727141 16.2027 0.000473399 15.3695 0.000473399V0Z" fill="black"/>
<path id="Vector_4" d="M7.24389 10.3389V11.1436C7.34283 11.1436 7.43798 11.1654 7.53455 11.2104C7.92937 11.4315 8.11683 11.7212 8.15045 12.1676C8.14429 12.2045 8.13814 12.2405 8.13246 12.276C8.10737 12.4289 8.08417 12.5728 8.04819 12.6907L8.04725 12.6945L8.0463 12.6983C7.74853 13.7118 7.85457 14.6643 8.36253 15.5292C8.54195 15.8407 8.55094 16.2142 8.3862 16.5295C8.2901 16.7132 8.05293 17.028 7.54355 17.0706C7.54213 17.0706 7.53882 17.0706 7.53455 17.0706C7.50426 17.0706 7.43372 17.064 7.29643 17.0214C6.85191 16.868 6.41355 16.7903 5.99269 16.7903C5.33278 16.7903 4.70363 16.9788 4.12182 17.3509C4.02194 17.4124 3.91684 17.4422 3.79991 17.4422C3.35681 17.4422 2.89051 17.0199 2.84507 16.6881C2.82234 16.4282 2.81998 16.2611 2.86921 16.1276C3.22994 15.1656 3.1523 14.1526 2.63866 13.1168L2.63724 13.1139L2.63582 13.1111C2.50706 12.8569 2.45593 12.6197 2.47913 12.3858C2.52363 11.9768 2.93075 11.5636 3.32036 11.5295C3.35066 11.528 3.38095 11.5276 3.40936 11.5276C3.57221 11.5276 3.70902 11.5493 3.82784 11.5938C4.20419 11.7392 4.58907 11.813 4.97063 11.813C5.5316 11.813 6.09684 11.654 6.65167 11.3396L6.65593 11.3373L6.66019 11.3349C6.877 11.2085 7.07299 11.1446 7.24341 11.1446V10.3398M7.24389 10.3389C6.90493 10.3389 6.57261 10.4539 6.25543 10.639C5.83458 10.8771 5.40852 11.0078 4.97063 11.0078C4.69085 11.0078 4.40586 10.9543 4.11472 10.8416C3.88938 10.7564 3.6541 10.7223 3.40936 10.7223C3.36344 10.7223 3.31657 10.7237 3.27018 10.7256C2.4815 10.7834 1.76335 11.5067 1.67861 12.3025C1.63648 12.722 1.73495 13.1125 1.91815 13.4742C2.29829 14.2411 2.42516 15.0222 2.11508 15.8469C2.00242 16.1508 2.01662 16.4542 2.04455 16.7728C2.13118 17.5184 2.95158 18.247 3.79991 18.247C4.05413 18.247 4.31118 18.1817 4.55167 18.0311C5.01749 17.7319 5.49752 17.5947 5.99269 17.5947C6.33591 17.5947 6.6867 17.6609 7.04411 17.7854C7.20318 17.8356 7.37265 17.8749 7.53455 17.8749C7.55917 17.8749 7.58331 17.874 7.60746 17.8721C9.01582 17.7566 9.71976 16.2663 9.05795 15.1235C8.64941 14.429 8.59307 13.6915 8.81841 12.9246C8.88895 12.6931 8.91688 12.4474 8.95948 12.2159C8.93108 11.4201 8.56514 10.8563 7.90333 10.4946C7.68273 10.3872 7.46212 10.3393 7.24389 10.3393V10.3389Z" fill="black"/>
</g>
<defs>
<clipPath id="clip0_395_2554">
<rect width="18.2476" height="18.2472" fill="white" transform="translate(0.557129)"/>
</clipPath>
</defs>
</svg>
