<svg width="170" height="119" viewBox="0 0 170 119" fill="none" xmlns="http://www.w3.org/2000/svg">
<path d="M68.3749 45.5286C68.0916 45.5286 67.8574 45.6212 67.6776 45.8009C67.4978 45.9807 67.4052 46.2149 67.4052 46.4982V64.0059C67.4052 65.2969 67.2037 66.4681 66.806 67.5249C66.4084 68.5817 65.771 69.4206 64.894 70.0361C64.017 70.6517 62.8567 70.9622 61.4132 70.9622C59.9696 70.9622 58.8093 70.6517 57.9323 70.0361C57.0553 69.4206 56.418 68.5817 56.0203 67.5249C55.6227 66.4681 55.4211 65.2969 55.4211 64.0059V46.4982C55.4211 46.2149 55.3285 45.9807 55.1487 45.8009C54.969 45.6212 54.7347 45.5286 54.4515 45.5286C54.1955 45.5286 53.9667 45.6212 53.776 45.8009C53.5854 45.9807 53.4873 46.2149 53.4873 46.4982V64.0059C53.4873 65.6837 53.7706 67.1872 54.3371 68.5272C54.9036 69.8672 55.7752 70.9295 56.9464 71.7139C58.1175 72.4983 59.6047 72.8905 61.4077 72.8905C63.2108 72.8905 64.6979 72.4983 65.8691 71.7139C67.0403 70.9295 67.9118 69.8672 68.4784 68.5272C69.0449 67.1872 69.3281 65.6782 69.3281 64.0059V46.4982C69.3281 46.2149 69.2355 45.9807 69.0558 45.8009C68.876 45.6212 68.6418 45.5286 68.3585 45.5286H68.3749Z" fill="black"/>
<path d="M80.9307 52.9478C80.0046 52.9478 79.1766 53.1874 78.4576 53.6614C77.7385 54.1407 77.1502 54.7454 76.6981 55.4753C76.6055 55.6224 76.5238 55.7749 76.4475 55.9274V54.217C76.4475 53.9337 76.3549 53.6995 76.1752 53.5197C75.9954 53.34 75.7612 53.2474 75.4779 53.2474C75.1946 53.2474 74.955 53.34 74.7643 53.5197C74.5736 53.6995 74.4756 53.9337 74.4756 54.217V71.6103C74.4756 71.8936 74.5736 72.1278 74.7643 72.3076C74.955 72.4873 75.1946 72.5799 75.4779 72.5799C75.7612 72.5799 75.9954 72.4873 76.1752 72.3076C76.3549 72.1278 76.4475 71.8936 76.4475 71.6103V60.7483C76.4475 59.5881 76.6218 58.5531 76.9705 57.6379C77.3191 56.7228 77.8094 56.0037 78.4413 55.4753C79.0731 54.9469 79.7758 54.6855 80.5494 54.6855C81.0396 54.6855 81.4645 54.7672 81.824 54.936C82.1836 55.1049 82.4668 55.3609 82.6738 55.7096C82.8808 56.0582 82.9843 56.4994 82.9843 57.0441V57.4309C82.9843 57.6869 83.0824 57.9157 83.273 58.1064C83.4637 58.297 83.6925 58.3951 83.9485 58.3951C84.2318 58.3951 84.466 58.297 84.6458 58.1064C84.8255 57.9157 84.9181 57.6869 84.9181 57.4309V57.0441C84.9181 55.7586 84.5586 54.7508 83.8341 54.0318C83.1151 53.3127 82.1454 52.9478 80.9361 52.9478H80.9307Z" fill="black"/>
<path d="M98.6511 54.2825C97.6869 53.3946 96.5049 52.9479 95.1158 52.9479C93.7267 52.9479 92.61 53.3619 91.6948 54.1845C91.0412 54.7728 90.5509 55.5136 90.2077 56.3852V46.4928C90.2077 46.2096 90.1151 45.9753 89.9354 45.7956C89.7556 45.6158 89.5214 45.5232 89.2381 45.5232C88.9821 45.5232 88.7533 45.6158 88.5626 45.7956C88.372 45.9753 88.2739 46.2096 88.2739 46.4928V71.6159C88.2739 71.8719 88.372 72.1007 88.5626 72.2914C88.7533 72.482 88.9821 72.5801 89.2381 72.5801C89.5214 72.5801 89.7556 72.482 89.9354 72.2914C90.1151 72.1007 90.2077 71.8719 90.2077 71.6159V69.4533C90.5509 70.3303 91.0412 71.0657 91.6948 71.654C92.61 72.4766 93.7485 72.8906 95.1158 72.8906C96.4831 72.8906 97.6869 72.4439 98.6511 71.556C99.6153 70.6681 100.351 69.4697 100.852 67.9608C101.353 66.4518 101.604 64.7741 101.604 62.9165C101.604 61.059 101.353 59.3812 100.852 57.8723C100.351 56.3634 99.6153 55.165 98.6511 54.2771V54.2825ZM99.1359 66.9966C98.7764 68.2222 98.2425 69.1864 97.5344 69.8946C96.8262 70.6027 95.9819 70.9568 95.0014 70.9568C93.5088 70.9568 92.3376 70.2051 91.4824 68.6961C90.6326 67.1872 90.2077 65.2643 90.2077 62.9165C90.2077 60.5687 90.6326 58.6131 91.4824 57.1206C92.3322 55.628 93.5034 54.8763 95.0014 54.8763C95.9819 54.8763 96.8262 55.2303 97.5344 55.9385C98.2425 56.6466 98.7764 57.6054 99.1359 58.8201C99.4954 60.0294 99.6752 61.3967 99.6752 62.9165C99.6752 64.4363 99.4954 65.7709 99.1359 66.9966Z" fill="black"/>
<path d="M107.056 45.5286C106.719 45.5286 106.446 45.6375 106.223 45.8554C106.005 46.0733 105.896 46.3511 105.896 46.6888V48.0398C105.896 48.3775 106.005 48.6499 106.223 48.8732C106.441 49.0911 106.719 49.2001 107.056 49.2001C107.416 49.2001 107.699 49.0911 107.906 48.8732C108.113 48.6553 108.217 48.3775 108.217 48.0398V46.6888C108.217 46.3566 108.113 46.0787 107.906 45.8554C107.699 45.6375 107.416 45.5286 107.056 45.5286Z" fill="black"/>
<path d="M107.056 53.2583C106.773 53.2583 106.539 53.3509 106.359 53.5307C106.179 53.7104 106.086 53.9447 106.086 54.2279V71.6213C106.086 71.8773 106.179 72.1061 106.359 72.2967C106.539 72.4874 106.773 72.5854 107.056 72.5854C107.339 72.5854 107.574 72.4874 107.753 72.2967C107.933 72.1061 108.026 71.8773 108.026 71.6213V54.2279C108.026 53.9447 107.933 53.7104 107.753 53.5307C107.574 53.3509 107.339 53.2583 107.056 53.2583Z" fill="black"/>
<path d="M122.417 53.5307C122.227 53.3509 121.987 53.2583 121.704 53.2583H117.88V48.1542C117.88 47.8709 117.787 47.6312 117.607 47.4406C117.428 47.2499 117.193 47.1519 116.91 47.1519C116.627 47.1519 116.393 47.2499 116.213 47.4406C116.033 47.6312 115.941 47.8709 115.941 48.1542V53.2583H112.117C111.833 53.2583 111.594 53.3509 111.403 53.5307C111.207 53.7104 111.114 53.9447 111.114 54.2279C111.114 54.5112 111.212 54.7454 111.403 54.9252C111.594 55.105 111.833 55.1976 112.117 55.1976H115.941V71.5831C115.941 71.8664 116.033 72.1061 116.213 72.2967C116.393 72.4874 116.627 72.5854 116.91 72.5854C117.193 72.5854 117.428 72.4874 117.607 72.2967C117.787 72.1061 117.88 71.8664 117.88 71.5831V55.1976H121.704C121.987 55.1976 122.227 55.105 122.417 54.9252C122.608 54.7454 122.706 54.5112 122.706 54.2279C122.706 53.9447 122.608 53.7104 122.417 53.5307Z" fill="black"/>
<path d="M33.3322 61.5817C33.0544 61.5817 32.8147 61.4945 32.6241 61.3147C32.4334 61.135 32.3408 60.9062 32.3408 60.6284C32.3408 60.3506 32.4443 60.1054 32.6459 59.9039L34.6287 57.9592C35.0863 57.5016 35.5656 57.1639 36.0613 56.946C36.5571 56.7281 37.0854 56.6191 37.6465 56.6191C38.2076 56.6191 38.6979 56.7226 39.1936 56.9242C39.6893 57.1257 40.1686 57.458 40.6262 57.9156L41.6939 58.9833C41.9717 59.2611 42.2495 59.4681 42.5164 59.5934C42.7834 59.7187 43.0557 59.784 43.339 59.784C43.644 59.784 43.9327 59.7187 44.1997 59.5934C44.4666 59.4681 44.7389 59.2611 45.0222 58.9833L46.9669 57.0386C47.1685 56.837 47.3972 56.7335 47.6533 56.7335C47.9311 56.7335 48.1653 56.8207 48.356 57.0005C48.5466 57.1802 48.6447 57.409 48.6447 57.6868C48.6447 57.9646 48.5412 58.2098 48.3396 58.4113L46.3568 60.356C45.8992 60.8136 45.4199 61.1513 44.9242 61.3692C44.4284 61.5871 43.9001 61.6906 43.339 61.6906C42.7779 61.6906 42.2876 61.5871 41.7919 61.3856C41.2962 61.184 40.8169 60.8517 40.3593 60.3941L39.2916 59.3265C39.0138 59.0486 38.736 58.8417 38.4691 58.7164C38.2021 58.5911 37.9298 58.5257 37.6465 58.5257C37.3415 58.5257 37.0528 58.5911 36.7858 58.7164C36.5189 58.8417 36.2466 59.0486 35.9633 59.3265L34.0186 61.2712C33.817 61.4727 33.5883 61.5762 33.3322 61.5762V61.5817Z" fill="black"/>
</svg>
