<svg width="18" height="17" viewBox="0 0 18 17" fill="none" xmlns="http://www.w3.org/2000/svg">
<circle cx="9.13666" cy="8.49604" r="8.39252" fill="#C9C9C9"/>
<path d="M9.26806 12.711C9.07573 12.711 8.91837 12.6498 8.79598 12.5274C8.67359 12.3875 8.6124 12.2214 8.6124 12.0291V4.44956C8.6124 4.25723 8.67359 4.09987 8.79598 3.97748C8.91837 3.85509 9.07573 3.7939 9.26806 3.7939C9.46039 3.7939 9.61775 3.85509 9.74014 3.97748C9.86253 4.09987 9.92373 4.25723 9.92373 4.44956V12.0291C9.92373 12.2214 9.86253 12.3875 9.74014 12.5274C9.61775 12.6498 9.46039 12.711 9.26806 12.711ZM5.4652 8.90809C5.29036 8.90809 5.133 8.84689 4.99312 8.7245C4.87073 8.58463 4.80953 8.42727 4.80953 8.25242C4.80953 8.0601 4.87073 7.90274 4.99312 7.78035C5.133 7.65795 5.29036 7.59676 5.4652 7.59676H13.0447C13.237 7.59676 13.3944 7.65795 13.5168 7.78035C13.6567 7.90274 13.7266 8.0601 13.7266 8.25242C13.7266 8.42727 13.6567 8.58463 13.5168 8.7245C13.3944 8.84689 13.237 8.90809 13.0447 8.90809H5.4652Z" fill="white"/>
</svg>
