<?xml version="1.0" encoding="utf-8"?>
<!-- Generator: Adobe Illustrator 24.3.0, SVG Export Plug-In . SVG Version: 6.00 Build 0)  -->
<svg version="1.1" id="Layer_1" xmlns="http://www.w3.org/2000/svg" xmlns:xlink="http://www.w3.org/1999/xlink" x="0px" y="0px"
	 viewBox="0 0 1200 1200" style="enable-background:new 0 0 1200 1200;" xml:space="preserve">
<g>
	<path d="M45.0029297,988.9941406c0-19,16-35,35-35s35,16,35,35c0,67,39,95,95,95c29,0,60-6,94-16c-31-20-61-43-87-68
		c-7-6-11-15-11-25c0-19,16-35,35-35c10,0,18,3,25,10c39,34,79,63,123,84c238-115,532-409,647-647.0004883c-79-162-244-273-436-273
		c-268,0-485,217-485,485c0,63.0004883,12,123.0004883,34,180.0004883c9,22-7,48-32,48c-15,0-27-9-32-22
		c-26-62-40-134-40-206.0004883c0-306,249-555,555-555c197,0,371,103,469,259c10-34,16-66,16-94c0-56-28-95-95-95c-19,0-35-16-35-35
		s16-35,35-35c111,0,165,77,165,165c0,52-15,113-43,176c28,66,43,138,43,214c0,306.0004883-249,555.0004883-555,555.0004883
		c-76,0-149-15-214-43c-64,27-123,43-176,43C122.0029297,1153.9941406,45.0029297,1099.9941406,45.0029297,988.9941406z
		 M1068.0029297,471.9936523c-127,223.0004883-373,468.0004883-596,595.0004883c40,11,83,17,128,17c268,0,485-217,485-485.0004883
		C1085.0029297,554.9936523,1079.0029297,511.9936523,1068.0029297,471.9936523z"/>
</g>
</svg>