<svg width="34" height="34" viewBox="0 0 34 34" fill="none" xmlns="http://www.w3.org/2000/svg">
<path d="M16.6286 8.9751H0.758789" stroke="black" stroke-width="1.2" stroke-linecap="round" stroke-linejoin="round"/>
<path d="M8.69595 10.959C6.19889 10.959 4.06182 12.4968 3.17871 14.6768C4.60669 16.0591 6.5518 16.9096 8.69595 16.9096C10.8401 16.9096 12.7852 16.0586 14.2132 14.6768C13.3301 12.4968 11.1925 10.959 8.69595 10.959Z" stroke="black" stroke-width="1.2" stroke-linecap="round" stroke-linejoin="round"/>
<path d="M16.6305 8.97494C16.6305 4.59258 13.078 1.04004 8.69564 1.04004C4.31329 1.04004 0.760742 4.59258 0.760742 8.97494C0.760742 11.2132 1.68735 13.2344 3.17786 14.6765C4.06097 12.4965 6.19858 10.9587 8.6951 10.9587C11.1916 10.9587 13.3292 12.4965 14.2123 14.6765C15.7028 13.2339 16.6295 11.2126 16.6295 8.97494H16.6305Z" stroke="black" stroke-width="1.2" stroke-linecap="round" stroke-linejoin="round"/>
<path d="M32.4708 16.882C32.4708 8.11729 25.3657 1.01275 16.6016 1.01221V16.8815H32.4708V16.882Z" stroke="black" stroke-width="1.2" stroke-linecap="round" stroke-linejoin="round"/>
<path d="M16.6016 1.01221L32.4708 16.8815" stroke="black" stroke-width="1.2" stroke-linecap="round" stroke-linejoin="round"/>
<path d="M16.6022 24.8436V32.7785H0.732422V24.8436C0.732422 20.4612 4.28496 16.9087 8.66732 16.9087C13.0497 16.9087 16.6022 20.4612 16.6022 24.8436Z" stroke="black" stroke-width="1.2" stroke-linecap="round" stroke-linejoin="round"/>
<path d="M16.6022 28.8115H0.732422" stroke="black" stroke-width="1.2" stroke-linecap="round" stroke-linejoin="round"/>
<path d="M21.9948 24.8436H30.3473C27.6034 20.1002 22.4755 16.9087 16.6016 16.9087V24.8436H19.1432H21.9948Z" stroke="black" stroke-width="1.2" stroke-linecap="round" stroke-linejoin="round"/>
<path d="M21.9948 24.8438H16.6016V32.7786H32.4714C32.4714 29.8879 31.6981 27.1782 30.3479 24.8438H21.9954H21.9948Z" stroke="black" stroke-width="1.2" stroke-linecap="round" stroke-linejoin="round"/>
<path d="M20.5699 25.9597C21.1862 25.9597 21.6858 25.4601 21.6858 24.8439C21.6858 24.2276 21.1862 23.728 20.5699 23.728C19.9537 23.728 19.4541 24.2276 19.4541 24.8439C19.4541 25.4601 19.9537 25.9597 20.5699 25.9597Z" fill="black"/>
<path d="M26.5201 12.0471C27.1364 12.0471 27.636 11.5475 27.636 10.9313C27.636 10.315 27.1364 9.81543 26.5201 9.81543C25.9039 9.81543 25.4043 10.315 25.4043 10.9313C25.4043 11.5475 25.9039 12.0471 26.5201 12.0471Z" fill="black"/>
</svg>
