<svg width="20" height="20" viewBox="0 0 20 20" fill="none" xmlns="http://www.w3.org/2000/svg">
<path d="M1.31738 10.0872C6.3363 10.0872 10.4046 6.0186 10.4046 1H1.31738V10.0872Z" stroke="black" stroke-width="0.787267" stroke-miterlimit="10"/>
<path d="M10.4124 10.0834C10.4146 5.06639 14.4822 1 19.4996 1C19.4996 6.01798 15.4323 10.0862 10.4143 10.0872H10.4121V10.0834H10.4124Z" stroke="black" stroke-width="0.787267" stroke-miterlimit="10"/>
<path d="M16.0928 4.4081L18.3643 2.13623" stroke="black" stroke-width="0.787267" stroke-miterlimit="10" stroke-linecap="round"/>
<path d="M10.4055 10.0962H1.31836V19.1834H10.4055V10.0962Z" stroke="black" stroke-width="0.787267" stroke-miterlimit="10"/>
<path d="M10.4055 10.0962L1.31836 19.1837" stroke="black" stroke-width="0.787267" stroke-miterlimit="10"/>
<path d="M1.26758 12.3667C3.13683 12.3667 4.83045 13.1193 6.06167 14.3378M1.26758 14.6386C2.50938 14.6386 3.63504 15.1368 4.45523 15.9445M1.26758 16.9104C1.88225 16.9104 2.43963 17.1546 2.84879 17.551" stroke="black" stroke-width="0.787267" stroke-miterlimit="10"/>
<path d="M1.31836 10.0962C3.82813 10.0962 6.10031 11.1135 7.74474 12.7585" stroke="black" stroke-width="0.787267" stroke-miterlimit="10"/>
<path d="M14.9568 19.1837C17.4663 19.1837 19.5006 17.1494 19.5006 14.6399C19.5006 12.1305 17.4663 10.0962 14.9568 10.0962C12.4474 10.0962 10.4131 12.1305 10.4131 14.6399C10.4131 17.1494 12.4474 19.1837 14.9568 19.1837Z" stroke="black" stroke-width="0.787267" stroke-miterlimit="10"/>
<path d="M14.9573 15.2789C15.3102 15.2789 15.5963 14.9928 15.5963 14.6399C15.5963 14.2871 15.3102 14.001 14.9573 14.001C14.6044 14.001 14.3184 14.2871 14.3184 14.6399C14.3184 14.9928 14.6044 15.2789 14.9573 15.2789Z" fill="black"/>
</svg>
