<svg width="19" height="19" viewBox="0 0 19 19" fill="none" xmlns="http://www.w3.org/2000/svg">
<mask id="path-1-inside-1_454_2031" fill="white">
<path fill-rule="evenodd" clip-rule="evenodd" d="M17.5204 13.2754C18.1606 12.0425 18.5224 10.6419 18.5224 9.1567C18.5224 4.2142 14.5157 0.20752 9.5732 0.20752C4.63071 0.20752 0.624023 4.2142 0.624023 9.1567C0.624023 14.0992 4.63071 18.1059 9.5732 18.1059C11.1683 18.1059 12.666 17.6885 13.963 16.9571L17.9372 18.022C18.3466 18.1317 18.7212 17.7571 18.6115 17.3477L17.5204 13.2754Z"/>
</mask>
<path d="M17.5204 13.2754L16.5431 12.7679L16.3461 13.1474L16.4567 13.5604L17.5204 13.2754ZM13.963 16.9571L14.248 15.8935L13.8137 15.7771L13.4221 15.998L13.963 16.9571ZM17.9372 18.022L18.2222 16.9584L17.9372 18.022ZM18.6115 17.3477L19.6751 17.0627H19.6751L18.6115 17.3477ZM17.4212 9.1567C17.4212 10.4611 17.1039 11.6881 16.5431 12.7679L18.4976 13.7829C19.2173 12.397 19.6235 10.8226 19.6235 9.1567H17.4212ZM9.5732 1.30865C13.9076 1.30865 17.4212 4.82234 17.4212 9.1567H19.6235C19.6235 3.60607 15.1238 -0.893607 9.5732 -0.893607V1.30865ZM1.72515 9.1567C1.72515 4.82234 5.23884 1.30865 9.5732 1.30865V-0.893607C4.02257 -0.893607 -0.477104 3.60607 -0.477104 9.1567H1.72515ZM9.5732 17.0047C5.23884 17.0047 1.72515 13.4911 1.72515 9.1567H-0.477104C-0.477104 14.7073 4.02257 19.207 9.5732 19.207V17.0047ZM13.4221 15.998C12.2859 16.6387 10.9739 17.0047 9.5732 17.0047V19.207C11.3628 19.207 13.0462 18.7383 14.5039 17.9162L13.4221 15.998ZM18.2222 16.9584L14.248 15.8935L13.678 18.0207L17.6522 19.0856L18.2222 16.9584ZM17.5479 17.6327C17.4382 17.2233 17.8128 16.8487 18.2222 16.9584L17.6522 19.0856C18.8804 19.4147 20.0042 18.2908 19.6751 17.0627L17.5479 17.6327ZM16.4567 13.5604L17.5479 17.6327L19.6751 17.0627L18.584 12.9904L16.4567 13.5604Z" fill="black" mask="url(#path-1-inside-1_454_2031)"/>
</svg>



