<svg width="19" height="19" viewBox="0 0 19 19" fill="none" xmlns="http://www.w3.org/2000/svg">
<mask id="path-1-inside-1_454_2031" fill="white">
<path fill-rule="evenodd" clip-rule="evenodd" d="M17.5204 13.3442C18.1606 12.1114 18.5224 10.7107 18.5224 9.22554C18.5224 4.28305 14.5157 0.276367 9.5732 0.276367C4.63071 0.276367 0.624023 4.28305 0.624023 9.22554C0.624023 14.168 4.63071 18.1747 9.5732 18.1747C11.1683 18.1747 12.666 17.7574 13.963 17.0259L17.9372 18.0908C18.3466 18.2005 18.7212 17.8259 18.6115 17.4165L17.5204 13.3442Z"/>
</mask>
<path d="M17.5204 13.3442L16.5431 12.8368L16.3461 13.2162L16.4567 13.6292L17.5204 13.3442ZM13.963 17.0259L14.248 15.9623L13.8137 15.8459L13.4221 16.0668L13.963 17.0259ZM17.9372 18.0908L18.2222 17.0272L17.9372 18.0908ZM18.6115 17.4165L19.6751 17.1315H19.6751L18.6115 17.4165ZM17.4212 9.22554C17.4212 10.5299 17.1039 11.757 16.5431 12.8368L18.4976 13.8517C19.2173 12.4658 19.6235 10.8915 19.6235 9.22554H17.4212ZM9.5732 1.37749C13.9076 1.37749 17.4212 4.89119 17.4212 9.22554H19.6235C19.6235 3.67491 15.1238 -0.82476 9.5732 -0.82476V1.37749ZM1.72515 9.22554C1.72515 4.89119 5.23884 1.37749 9.5732 1.37749V-0.82476C4.02257 -0.82476 -0.477104 3.67491 -0.477104 9.22554H1.72515ZM9.5732 17.0736C5.23884 17.0736 1.72515 13.5599 1.72515 9.22554H-0.477104C-0.477104 14.7762 4.02257 19.2758 9.5732 19.2758V17.0736ZM13.4221 16.0668C12.2859 16.7076 10.9739 17.0736 9.5732 17.0736V19.2758C11.3628 19.2758 13.0462 18.8072 14.5039 17.985L13.4221 16.0668ZM18.2222 17.0272L14.248 15.9623L13.678 18.0895L17.6522 19.1544L18.2222 17.0272ZM17.5479 17.7015C17.4382 17.2921 17.8128 16.9175 18.2222 17.0272L17.6522 19.1544C18.8804 19.4835 20.0042 18.3597 19.6751 17.1315L17.5479 17.7015ZM16.4567 13.6292L17.5479 17.7015L19.6751 17.1315L18.584 13.0592L16.4567 13.6292Z" fill="black" mask="url(#path-1-inside-1_454_2031)"/>
</svg>
