<svg width="402" height="251" viewBox="0 0 402 251" fill="none" xmlns="http://www.w3.org/2000/svg">
<rect x="0.251953" width="401.041" height="250.651" rx="11.14" fill="none"/>
<path d="M115.21 120.474C114.95 120.474 114.729 120.384 114.549 120.203C114.368 120.023 114.278 119.802 114.278 119.541C114.278 119.301 114.378 119.08 114.579 118.88L116.173 117.286C116.855 116.604 117.667 116.263 118.609 116.263C119.05 116.263 119.472 116.343 119.873 116.504C120.294 116.664 120.665 116.915 120.985 117.255L121.948 118.188C122.309 118.549 122.69 118.729 123.091 118.729C123.492 118.729 123.873 118.549 124.234 118.188L125.828 116.594C126.008 116.413 126.229 116.323 126.49 116.323C126.75 116.323 126.961 116.413 127.121 116.594C127.302 116.754 127.392 116.965 127.392 117.225C127.392 117.486 127.302 117.707 127.121 117.887L125.497 119.481C124.795 120.183 123.993 120.534 123.091 120.534C122.169 120.534 121.366 120.193 120.685 119.511L119.752 118.579C119.411 118.238 119.03 118.068 118.609 118.068C118.188 118.068 117.797 118.238 117.436 118.579L115.872 120.173C115.672 120.374 115.451 120.474 115.21 120.474ZM134.006 125.918C133.746 125.918 133.525 125.828 133.344 125.647C133.184 125.467 133.104 125.246 133.104 124.986V112.684H130.427C130.166 112.684 129.946 112.603 129.765 112.443C129.585 112.263 129.494 112.042 129.494 111.781C129.494 111.521 129.585 111.31 129.765 111.15C129.946 110.969 130.166 110.879 130.427 110.879H133.104V107.059C133.104 106.778 133.184 106.558 133.344 106.397C133.525 106.217 133.746 106.127 134.006 106.127C134.267 106.127 134.477 106.217 134.638 106.397C134.818 106.558 134.909 106.778 134.909 107.059V110.879H137.585C137.866 110.879 138.087 110.969 138.247 111.15C138.428 111.31 138.518 111.521 138.518 111.781C138.518 112.042 138.428 112.263 138.247 112.443C138.087 112.603 137.866 112.684 137.585 112.684H134.909V124.986C134.909 125.246 134.818 125.467 134.638 125.647C134.477 125.828 134.267 125.918 134.006 125.918ZM145.268 126.159C144.165 126.159 143.222 125.818 142.44 125.136C141.658 124.434 141.067 123.492 140.666 122.309C140.265 121.126 140.064 119.822 140.064 118.398C140.064 116.955 140.265 115.651 140.666 114.488C141.067 113.305 141.658 112.373 142.44 111.691C143.222 110.989 144.165 110.638 145.268 110.638C146.391 110.638 147.333 110.989 148.095 111.691C148.877 112.373 149.469 113.305 149.87 114.488C150.271 115.651 150.471 116.955 150.471 118.398C150.471 119.822 150.271 121.126 149.87 122.309C149.469 123.492 148.877 124.434 148.095 125.136C147.333 125.818 146.391 126.159 145.268 126.159ZM145.268 124.354C145.989 124.354 146.601 124.083 147.102 123.542C147.604 123 147.985 122.279 148.245 121.376C148.526 120.474 148.666 119.481 148.666 118.398C148.666 117.296 148.526 116.303 148.245 115.421C147.985 114.518 147.604 113.797 147.102 113.255C146.601 112.714 145.989 112.443 145.268 112.443C144.566 112.443 143.954 112.714 143.433 113.255C142.932 113.797 142.541 114.518 142.26 115.421C141.999 116.303 141.869 117.296 141.869 118.398C141.869 119.481 141.999 120.474 142.26 121.376C142.541 122.279 142.932 123 143.433 123.542C143.954 124.083 144.566 124.354 145.268 124.354ZM154.691 125.918C154.43 125.918 154.209 125.838 154.029 125.677C153.869 125.497 153.788 125.276 153.788 125.016V105.766C153.788 105.505 153.869 105.294 154.029 105.134C154.209 104.954 154.43 104.863 154.691 104.863C154.951 104.863 155.162 104.954 155.322 105.134C155.503 105.294 155.593 105.505 155.593 105.766V125.016C155.593 125.276 155.503 125.497 155.322 125.677C155.162 125.838 154.951 125.918 154.691 125.918ZM160.246 126.068C159.985 126.068 159.765 125.988 159.584 125.828C159.424 125.647 159.343 125.427 159.343 125.166V111.781C159.343 111.521 159.424 111.31 159.584 111.15C159.765 110.969 159.985 110.879 160.246 110.879C160.506 110.879 160.717 110.969 160.877 111.15C161.058 111.31 161.148 111.521 161.148 111.781V112.834C161.489 112.132 161.96 111.591 162.562 111.21C163.163 110.829 163.835 110.638 164.577 110.638C165.499 110.638 166.302 110.859 166.983 111.3C167.665 111.741 168.186 112.423 168.547 113.345C168.968 112.463 169.53 111.791 170.232 111.33C170.934 110.869 171.706 110.638 172.548 110.638C173.931 110.638 175.034 111.14 175.856 112.142C176.678 113.145 177.09 114.679 177.09 116.744V125.016C177.09 125.276 176.999 125.497 176.819 125.677C176.658 125.838 176.448 125.918 176.187 125.918C175.926 125.918 175.706 125.838 175.525 125.677C175.365 125.497 175.285 125.276 175.285 125.016V116.744C175.285 115.32 175.054 114.248 174.593 113.526C174.132 112.784 173.38 112.413 172.337 112.413C171.395 112.413 170.623 112.814 170.021 113.616C169.42 114.398 169.119 115.571 169.119 117.135V125.016C169.119 125.276 169.029 125.497 168.848 125.677C168.688 125.838 168.477 125.918 168.216 125.918C167.956 125.918 167.735 125.838 167.555 125.677C167.394 125.497 167.314 125.276 167.314 125.016V116.744C167.314 115.32 167.084 114.248 166.622 113.526C166.161 112.784 165.409 112.413 164.366 112.413C163.424 112.413 162.652 112.814 162.05 113.616C161.449 114.398 161.148 115.571 161.148 117.135V125.166C161.148 125.427 161.058 125.647 160.877 125.828C160.717 125.988 160.506 126.068 160.246 126.068ZM185.506 126.159C184.423 126.159 183.531 125.928 182.829 125.467C182.127 124.986 181.606 124.344 181.265 123.542C180.924 122.74 180.754 121.847 180.754 120.865V111.811C180.754 111.531 180.834 111.31 180.994 111.15C181.175 110.969 181.395 110.879 181.656 110.879C181.917 110.879 182.127 110.969 182.288 111.15C182.468 111.31 182.558 111.531 182.558 111.811V120.865C182.558 121.908 182.789 122.75 183.25 123.391C183.711 124.033 184.463 124.354 185.506 124.354C186.569 124.354 187.321 124.033 187.762 123.391C188.223 122.75 188.454 121.908 188.454 120.865V111.811C188.454 111.531 188.534 111.31 188.694 111.15C188.875 110.969 189.095 110.879 189.356 110.879C189.617 110.879 189.827 110.969 189.988 111.15C190.168 111.31 190.258 111.531 190.258 111.811V120.865C190.258 121.847 190.088 122.74 189.747 123.542C189.406 124.344 188.885 124.986 188.183 125.467C187.481 125.928 186.589 126.159 185.506 126.159ZM198.604 126.159C197.562 126.159 196.659 125.818 195.897 125.136C195.155 124.434 194.584 123.492 194.183 122.309C193.802 121.126 193.611 119.822 193.611 118.398C193.611 116.955 193.802 115.651 194.183 114.488C194.584 113.305 195.155 112.373 195.897 111.691C196.659 110.989 197.562 110.638 198.604 110.638C199.426 110.638 200.148 110.849 200.77 111.27C201.391 111.671 201.863 112.222 202.184 112.924V105.736C202.184 105.475 202.264 105.264 202.424 105.104C202.605 104.923 202.825 104.833 203.086 104.833C203.347 104.833 203.557 104.923 203.718 105.104C203.898 105.264 203.988 105.475 203.988 105.736V125.046C203.988 125.306 203.898 125.527 203.718 125.707C203.557 125.868 203.347 125.948 203.086 125.948C202.825 125.948 202.605 125.868 202.424 125.707C202.264 125.527 202.184 125.306 202.184 125.046V123.873C201.863 124.574 201.391 125.136 200.77 125.557C200.148 125.958 199.426 126.159 198.604 126.159ZM198.755 124.354C199.817 124.354 200.65 123.802 201.251 122.7C201.873 121.577 202.184 120.143 202.184 118.398C202.184 116.654 201.873 115.23 201.251 114.127C200.65 113.004 199.817 112.443 198.755 112.443C198.053 112.443 197.451 112.714 196.95 113.255C196.449 113.797 196.068 114.518 195.807 115.421C195.546 116.303 195.416 117.296 195.416 118.398C195.416 119.481 195.546 120.474 195.807 121.376C196.068 122.279 196.449 123 196.95 123.542C197.451 124.083 198.053 124.354 198.755 124.354ZM208.409 119.301C208.148 119.301 207.927 119.221 207.747 119.06C207.586 118.88 207.506 118.659 207.506 118.398C207.506 118.138 207.586 117.927 207.747 117.767C207.927 117.586 208.148 117.496 208.409 117.496H214.244C214.504 117.496 214.715 117.586 214.875 117.767C215.056 117.927 215.146 118.138 215.146 118.398C215.146 118.659 215.056 118.88 214.875 119.06C214.715 119.221 214.504 119.301 214.244 119.301H208.409ZM220.539 125.918C220.279 125.918 220.058 125.828 219.878 125.647C219.717 125.467 219.637 125.246 219.637 124.986V112.684H216.96C216.699 112.684 216.479 112.603 216.298 112.443C216.118 112.263 216.028 112.042 216.028 111.781C216.028 111.521 216.118 111.31 216.298 111.15C216.479 110.969 216.699 110.879 216.96 110.879H219.637V107.059C219.637 106.778 219.717 106.558 219.878 106.397C220.058 106.217 220.279 106.127 220.539 106.127C220.8 106.127 221.011 106.217 221.171 106.397C221.351 106.558 221.442 106.778 221.442 107.059V110.879H224.119C224.399 110.879 224.62 110.969 224.78 111.15C224.961 111.31 225.051 111.521 225.051 111.781C225.051 112.042 224.961 112.263 224.78 112.443C224.62 112.603 224.399 112.684 224.119 112.684H221.442V124.986C221.442 125.246 221.351 125.467 221.171 125.647C221.011 125.828 220.8 125.918 220.539 125.918ZM231.801 126.159C230.698 126.159 229.756 125.818 228.973 125.136C228.191 124.434 227.6 123.492 227.199 122.309C226.798 121.126 226.597 119.822 226.597 118.398C226.597 116.955 226.798 115.651 227.199 114.488C227.6 113.305 228.191 112.373 228.973 111.691C229.756 110.989 230.698 110.638 231.801 110.638C232.924 110.638 233.866 110.989 234.628 111.691C235.41 112.373 236.002 113.305 236.403 114.488C236.804 115.651 237.004 116.955 237.004 118.398C237.004 119.822 236.804 121.126 236.403 122.309C236.002 123.492 235.41 124.434 234.628 125.136C233.866 125.818 232.924 126.159 231.801 126.159ZM231.801 124.354C232.523 124.354 233.134 124.083 233.636 123.542C234.137 123 234.518 122.279 234.779 121.376C235.059 120.474 235.2 119.481 235.2 118.398C235.2 117.296 235.059 116.303 234.779 115.421C234.518 114.518 234.137 113.797 233.636 113.255C233.134 112.714 232.523 112.443 231.801 112.443C231.099 112.443 230.487 112.714 229.966 113.255C229.465 113.797 229.074 114.518 228.793 115.421C228.532 116.303 228.402 117.296 228.402 118.398C228.402 119.481 228.532 120.474 228.793 121.376C229.074 122.279 229.465 123 229.966 123.542C230.487 124.083 231.099 124.354 231.801 124.354ZM241.374 125.918C241.114 125.918 240.893 125.838 240.713 125.677C240.552 125.497 240.472 125.276 240.472 125.016V105.766C240.472 105.505 240.552 105.294 240.713 105.134C240.893 104.954 241.114 104.863 241.374 104.863C241.635 104.863 241.846 104.954 242.006 105.134C242.186 105.294 242.277 105.505 242.277 105.766V112.924C242.598 112.222 243.069 111.671 243.69 111.27C244.312 110.849 245.034 110.638 245.856 110.638C246.919 110.638 247.821 110.989 248.563 111.691C249.305 112.373 249.866 113.305 250.247 114.488C250.648 115.651 250.849 116.955 250.849 118.398C250.849 119.822 250.648 121.126 250.247 122.309C249.866 123.492 249.305 124.434 248.563 125.136C247.821 125.818 246.919 126.159 245.856 126.159C245.034 126.159 244.312 125.958 243.69 125.557C243.069 125.136 242.598 124.574 242.277 123.873V125.016C242.277 125.276 242.186 125.497 242.006 125.677C241.846 125.838 241.635 125.918 241.374 125.918ZM245.706 124.354C246.427 124.354 247.029 124.083 247.51 123.542C248.012 123 248.393 122.279 248.653 121.376C248.914 120.474 249.044 119.481 249.044 118.398C249.044 117.296 248.914 116.303 248.653 115.421C248.393 114.518 248.012 113.797 247.51 113.255C247.029 112.714 246.427 112.443 245.706 112.443C244.643 112.443 243.801 113.004 243.179 114.127C242.577 115.23 242.277 116.654 242.277 118.398C242.277 120.143 242.577 121.577 243.179 122.7C243.801 123.802 244.643 124.354 245.706 124.354ZM256.933 125.918C256.672 125.918 256.451 125.828 256.271 125.647C256.111 125.467 256.03 125.246 256.03 124.986V112.684H253.353C253.093 112.684 252.872 112.603 252.692 112.443C252.511 112.263 252.421 112.042 252.421 111.781C252.421 111.521 252.511 111.31 252.692 111.15C252.872 110.969 253.093 110.879 253.353 110.879H256.03V107.059C256.03 106.778 256.111 106.558 256.271 106.397C256.451 106.217 256.672 106.127 256.933 106.127C257.193 106.127 257.404 106.217 257.564 106.397C257.745 106.558 257.835 106.778 257.835 107.059V110.879H260.512C260.793 110.879 261.013 110.969 261.174 111.15C261.354 111.31 261.444 111.521 261.444 111.781C261.444 112.042 261.354 112.263 261.174 112.443C261.013 112.603 260.793 112.684 260.512 112.684H257.835V124.986C257.835 125.246 257.745 125.467 257.564 125.647C257.404 125.828 257.193 125.918 256.933 125.918ZM268.485 126.159C267.402 126.159 266.51 125.928 265.808 125.467C265.106 124.986 264.585 124.344 264.244 123.542C263.903 122.74 263.733 121.847 263.733 120.865V111.811C263.733 111.531 263.813 111.31 263.973 111.15C264.154 110.969 264.374 110.879 264.635 110.879C264.896 110.879 265.106 110.969 265.267 111.15C265.447 111.31 265.537 111.531 265.537 111.811V120.865C265.537 121.908 265.768 122.75 266.229 123.391C266.69 124.033 267.442 124.354 268.485 124.354C269.548 124.354 270.3 124.033 270.741 123.391C271.202 122.75 271.433 121.908 271.433 120.865V111.811C271.433 111.531 271.513 111.31 271.673 111.15C271.854 110.969 272.074 110.879 272.335 110.879C272.596 110.879 272.806 110.969 272.967 111.15C273.147 111.31 273.237 111.531 273.237 111.811V120.865C273.237 121.847 273.067 122.74 272.726 123.542C272.385 124.344 271.864 124.986 271.162 125.467C270.46 125.928 269.568 126.159 268.485 126.159ZM281.583 126.159C280.541 126.159 279.638 125.818 278.876 125.136C278.134 124.434 277.563 123.492 277.162 122.309C276.781 121.126 276.59 119.822 276.59 118.398C276.59 116.955 276.781 115.651 277.162 114.488C277.563 113.305 278.134 112.373 278.876 111.691C279.638 110.989 280.541 110.638 281.583 110.638C282.405 110.638 283.127 110.849 283.749 111.27C284.371 111.671 284.842 112.222 285.163 112.924V105.736C285.163 105.475 285.243 105.264 285.403 105.104C285.584 104.923 285.804 104.833 286.065 104.833C286.326 104.833 286.536 104.923 286.697 105.104C286.877 105.264 286.967 105.475 286.967 105.736V125.046C286.967 125.306 286.877 125.527 286.697 125.707C286.536 125.868 286.326 125.948 286.065 125.948C285.804 125.948 285.584 125.868 285.403 125.707C285.243 125.527 285.163 125.306 285.163 125.046V123.873C284.842 124.574 284.371 125.136 283.749 125.557C283.127 125.958 282.405 126.159 281.583 126.159ZM281.734 124.354C282.796 124.354 283.629 123.802 284.23 122.7C284.852 121.577 285.163 120.143 285.163 118.398C285.163 116.654 284.852 115.23 284.23 114.127C283.629 113.004 282.796 112.443 281.734 112.443C281.032 112.443 280.43 112.714 279.929 113.255C279.428 113.797 279.047 114.518 278.786 115.421C278.525 116.303 278.395 117.296 278.395 118.398C278.395 119.481 278.525 120.474 278.786 121.376C279.047 122.279 279.428 123 279.929 123.542C280.43 124.083 281.032 124.354 281.734 124.354Z" fill="black"/>
<path d="M36.2285 126.331C34.86 126.331 33.6719 125.488 33.6719 123.774C33.6719 123.443 33.9426 123.172 34.2734 123.172C34.6043 123.172 34.875 123.443 34.875 123.774C34.875 124.736 35.4164 125.127 36.2285 125.127C36.6045 125.127 37.0256 125.067 37.4617 124.947C37.0406 124.661 36.6346 124.345 36.2736 124C36.1684 123.894 36.0932 123.729 36.0932 123.563C36.0932 123.233 36.3639 122.962 36.6947 122.962C36.8602 122.962 36.9955 123.022 37.1158 123.127C37.7023 123.624 38.2889 124.045 38.9205 124.375C42.4848 122.646 46.8461 118.27 48.5756 114.72C47.4025 112.329 44.9361 110.69 42.0937 110.69C38.1084 110.69 34.875 113.923 34.875 117.909C34.875 118.841 35.0555 119.743 35.3863 120.586C35.5367 120.962 35.266 121.413 34.8299 121.413C34.5742 121.413 34.3637 121.262 34.2734 121.037C33.8824 120.089 33.6719 119.007 33.6719 117.909C33.6719 113.262 37.4467 109.487 42.0937 109.487C45.0263 109.487 47.6131 110.991 49.132 113.277C49.2523 112.841 49.3125 112.419 49.3125 112.043C49.3125 111.231 48.9215 110.69 47.959 110.69C47.6281 110.69 47.3574 110.419 47.3574 110.088C47.3574 109.758 47.6281 109.487 47.959 109.487C49.6734 109.487 50.5156 110.675 50.5156 112.043C50.5156 112.841 50.29 113.743 49.8689 114.69C50.29 115.683 50.5156 116.766 50.5156 117.909C50.5156 122.556 46.7408 126.331 42.0937 126.331C40.9508 126.331 39.8529 126.105 38.8754 125.684C37.9279 126.105 37.0256 126.331 36.2285 126.331ZM49.3125 117.909C49.3125 117.322 49.2373 116.736 49.1019 116.194C47.192 119.458 43.6428 123.007 40.3642 124.917C40.9207 125.052 41.4922 125.127 42.0937 125.127C46.0791 125.127 49.3125 121.894 49.3125 117.909Z" fill="black"/>
<path d="M41.2666 197.841C40.2339 197.841 39.2564 197.636 38.334 197.225C37.4216 196.824 36.6145 196.262 35.9127 195.54C35.2209 194.818 34.6745 193.976 34.2734 193.014C33.8724 192.041 33.6719 190.999 33.6719 189.886C33.6719 188.903 33.8273 187.971 34.1381 187.088C34.4589 186.196 34.9001 185.379 35.4615 184.637C36.033 183.895 36.7047 183.253 37.4768 182.712C38.2488 182.171 39.096 181.75 40.0183 181.449C40.9508 181.148 41.9233 180.998 42.9359 180.998C43.8784 180.998 44.8008 181.133 45.7031 181.404C46.6155 181.664 47.4677 182.045 48.2597 182.547C49.0618 183.038 49.7636 183.629 50.3652 184.321C50.4655 184.442 50.5156 184.572 50.5156 184.712C50.5156 184.873 50.4554 185.013 50.3351 185.133C50.2248 185.254 50.0845 185.314 49.914 185.314C49.7336 185.314 49.5832 185.244 49.4629 185.103C48.9215 184.492 48.3049 183.97 47.6131 183.539C46.9213 183.108 46.1793 182.777 45.3873 182.547C44.5952 182.316 43.7781 182.201 42.9359 182.201C42.0536 182.201 41.2064 182.331 40.3943 182.592C39.5922 182.852 38.8553 183.218 38.1836 183.69C37.5118 184.161 36.9253 184.717 36.424 185.359C35.9327 185.991 35.5518 186.692 35.2811 187.464C35.0103 188.226 34.875 189.033 34.875 189.886C34.875 190.838 35.0404 191.725 35.3713 192.548C35.7122 193.37 36.1784 194.087 36.7699 194.698C37.3615 195.31 38.0432 195.786 38.8152 196.127C39.5872 196.468 40.4044 196.638 41.2666 196.638C42.0185 196.638 42.7254 196.503 43.3871 196.232C44.0488 195.971 44.6303 195.605 45.1316 195.134C45.6329 194.673 46.0239 194.137 46.3047 193.525C46.5954 192.903 46.7408 192.242 46.7408 191.54C46.7408 190.938 46.6355 190.382 46.425 189.871C46.2245 189.359 45.9487 188.918 45.5978 188.547C45.2469 188.166 44.8409 187.87 44.3797 187.66C43.9285 187.449 43.4473 187.344 42.9359 187.344C42.4045 187.344 41.9133 187.459 41.4621 187.69C41.0109 187.911 40.65 188.221 40.3793 188.622C40.1186 189.013 39.9883 189.47 39.9883 189.991C39.9883 190.151 39.9281 190.292 39.8078 190.412C39.6975 190.532 39.5572 190.592 39.3867 190.592C39.2263 190.592 39.0859 190.532 38.9656 190.412C38.8453 190.292 38.7851 190.151 38.7851 189.991C38.7851 189.229 38.9756 188.562 39.3566 187.991C39.7476 187.409 40.259 186.958 40.8906 186.637C41.5223 186.306 42.204 186.141 42.9359 186.141C43.6077 186.141 44.2443 186.276 44.8459 186.547C45.4474 186.818 45.9788 187.199 46.44 187.69C46.9112 188.181 47.2772 188.753 47.5379 189.404C47.8086 190.056 47.9439 190.768 47.9439 191.54C47.9439 192.412 47.7685 193.229 47.4176 193.991C47.0666 194.753 46.5854 195.42 45.9738 195.992C45.3622 196.573 44.6504 197.024 43.8383 197.345C43.0362 197.676 42.179 197.841 41.2666 197.841ZM42.0937 220.841C41.6626 220.841 41.2967 220.716 40.9959 220.465C40.6951 220.215 40.4896 219.919 40.3793 219.578L39.2664 216.119C39.1862 215.858 39.0809 215.658 38.9506 215.517C38.8202 215.377 38.6448 215.272 38.4242 215.202L34.9201 214.134C34.5993 214.034 34.3085 213.833 34.0479 213.532C33.7972 213.222 33.6719 212.851 33.6719 212.419C33.6719 211.978 33.7972 211.607 34.0479 211.307C34.3085 211.006 34.5993 210.805 34.9201 210.705L38.4242 209.637C38.6448 209.567 38.8202 209.462 38.9506 209.321C39.0809 209.171 39.1862 208.97 39.2664 208.72L40.3793 205.261C40.4896 204.91 40.6951 204.614 40.9959 204.374C41.2967 204.123 41.6626 203.998 42.0937 203.998C42.5249 203.998 42.8908 204.123 43.1916 204.374C43.4924 204.614 43.6979 204.91 43.8082 205.261L44.9211 208.72C45.0013 208.97 45.1066 209.171 45.2369 209.321C45.3672 209.462 45.5427 209.567 45.7633 209.637L49.2674 210.705C49.5882 210.805 49.8739 211.006 50.1246 211.307C50.3853 211.607 50.5156 211.978 50.5156 212.419C50.5156 212.851 50.3853 213.222 50.1246 213.532C49.8739 213.833 49.5882 214.034 49.2674 214.134L45.7633 215.202C45.5427 215.272 45.3672 215.377 45.2369 215.517C45.1066 215.658 45.0013 215.858 44.9211 216.119L43.8082 219.578C43.6979 219.919 43.4924 220.215 43.1916 220.465C42.8908 220.716 42.5249 220.841 42.0937 220.841ZM42.0937 219.638C42.2341 219.638 42.3544 219.593 42.4547 219.503C42.5549 219.423 42.6251 219.327 42.6652 219.217L43.7781 215.728C43.9084 215.327 44.104 214.981 44.3646 214.69C44.6253 214.4 44.9712 214.189 45.4023 214.059L48.9064 212.991C49.0167 212.951 49.112 212.881 49.1922 212.78C49.2724 212.68 49.3125 212.56 49.3125 212.419C49.3125 212.279 49.2724 212.159 49.1922 212.059C49.112 211.958 49.0167 211.888 48.9064 211.848L45.4023 210.78C44.9712 210.64 44.6253 210.429 44.3646 210.149C44.104 209.858 43.9084 209.512 43.7781 209.111L42.6652 205.622C42.6251 205.512 42.5549 205.416 42.4547 205.336C42.3544 205.246 42.2341 205.201 42.0937 205.201C41.9534 205.201 41.8331 205.246 41.7328 205.336C41.6325 205.416 41.5624 205.512 41.5223 205.622L40.4094 209.111C40.279 209.512 40.0835 209.858 39.8228 210.149C39.5722 210.429 39.2263 210.64 38.7851 210.78L35.2811 211.848C35.1708 211.888 35.0755 211.958 34.9953 212.059C34.9151 212.159 34.875 212.279 34.875 212.419C34.875 212.56 34.9151 212.68 34.9953 212.78C35.0755 212.881 35.1708 212.951 35.2811 212.991L38.7851 214.059C39.2263 214.189 39.5722 214.4 39.8228 214.69C40.0835 214.981 40.279 215.327 40.4094 215.728L41.5223 219.217C41.5624 219.327 41.6325 219.423 41.7328 219.503C41.8331 219.593 41.9534 219.638 42.0937 219.638Z" fill="black"/>
<path d="M71.423 194.803C70.7713 194.803 70.2199 194.658 69.7687 194.367C69.3176 194.077 68.9516 193.681 68.6709 193.179C68.3902 192.678 68.1846 192.106 68.0543 191.465C67.924 190.813 67.8588 190.131 67.8588 189.419C67.8588 188.718 67.924 188.041 68.0543 187.389C68.1846 186.737 68.3801 186.161 68.6408 185.66C68.9115 185.158 69.2524 184.762 69.6635 184.472C70.0846 184.181 70.5809 184.035 71.1523 184.035C71.804 184.035 72.3504 184.221 72.7916 184.592C73.2327 184.963 73.6037 185.509 73.9045 186.231C73.9546 186.351 73.9797 186.447 73.9797 186.517C73.9797 186.667 73.9295 186.793 73.8293 186.893C73.729 186.993 73.6037 187.043 73.4533 187.043C73.353 187.043 73.2528 187.013 73.1525 186.953C73.0623 186.893 72.9921 186.808 72.942 186.697C72.7715 186.236 72.556 185.855 72.2953 185.554C72.0346 185.244 71.6536 185.088 71.1523 185.088C70.7513 185.088 70.4054 185.209 70.1146 185.449C69.8339 185.69 69.6033 186.016 69.4228 186.427C69.2524 186.828 69.1221 187.289 69.0318 187.81C68.9516 188.322 68.9115 188.858 68.9115 189.419C68.9115 189.981 68.9516 190.522 69.0318 191.044C69.1221 191.565 69.2624 192.031 69.4529 192.442C69.6434 192.843 69.8991 193.164 70.2199 193.405C70.5407 193.635 70.9418 193.751 71.423 193.751C71.6937 193.751 71.9444 193.716 72.175 193.645C72.4156 193.565 72.6362 193.44 72.8367 193.269V189.63C72.8367 189.48 72.8868 189.354 72.9871 189.254C73.0874 189.154 73.2127 189.104 73.3631 189.104C73.5135 189.104 73.6388 189.154 73.7391 189.254C73.8393 189.354 73.8894 189.48 73.8894 189.63V193.51C73.8894 193.61 73.8694 193.701 73.8293 193.781C73.7892 193.851 73.7391 193.911 73.6789 193.961C73.4282 194.172 73.1124 194.367 72.7314 194.548C72.3605 194.718 71.9243 194.803 71.423 194.803ZM71.4682 190.156C71.3178 190.156 71.1924 190.106 71.0922 190.006C70.9919 189.906 70.9418 189.78 70.9418 189.63C70.9418 189.48 70.9919 189.354 71.0922 189.254C71.1924 189.154 71.3178 189.104 71.4682 189.104H73.3631C73.5135 189.104 73.6388 189.154 73.7391 189.254C73.8393 189.354 73.8894 189.48 73.8894 189.63C73.8894 189.78 73.8393 189.906 73.7391 190.006C73.6388 190.106 73.5135 190.156 73.3631 190.156H71.4682ZM79.8102 194.683C79.6599 194.683 79.5345 194.633 79.4343 194.533C79.334 194.432 79.2839 194.307 79.2839 194.157V189.028C79.2839 188.407 78.9079 188.096 78.1559 188.096C77.785 188.096 77.4742 188.166 77.2235 188.307C76.9729 188.447 76.7473 188.637 76.5468 188.878C76.4866 188.958 76.4164 189.013 76.3362 189.043C76.266 189.074 76.1959 189.089 76.1257 189.089C75.9953 189.089 75.875 189.043 75.7647 188.953C75.6545 188.853 75.5993 188.723 75.5993 188.562C75.5993 188.512 75.6093 188.457 75.6294 188.397C75.6494 188.337 75.6895 188.271 75.7497 188.201C76.0705 187.81 76.4164 187.52 76.7874 187.329C77.1684 187.139 77.6246 187.043 78.1559 187.043C78.8177 187.043 79.344 187.219 79.735 187.57C80.1361 187.921 80.3366 188.407 80.3366 189.028V194.157C80.3366 194.307 80.2865 194.432 80.1862 194.533C80.086 194.633 79.9606 194.683 79.8102 194.683ZM77.5243 194.803C77.1834 194.803 76.8626 194.723 76.5618 194.563C76.261 194.392 76.0154 194.142 75.8249 193.811C75.6344 193.48 75.5392 193.059 75.5392 192.548C75.5392 191.946 75.6946 191.45 76.0054 191.059C76.3162 190.658 76.7473 190.387 77.2987 190.247L78.2311 189.991C78.5821 189.901 78.8427 189.79 79.0132 189.66C79.1936 189.53 79.2839 189.319 79.2839 189.028L79.4794 189.63C79.4794 189.951 79.4343 190.201 79.344 190.382C79.2638 190.562 79.1435 190.703 78.9831 190.803C78.8327 190.893 78.6422 190.968 78.4116 191.029L77.7048 191.224C77.2937 191.324 77.003 191.48 76.8325 191.69C76.6721 191.901 76.5919 192.187 76.5919 192.548C76.5919 192.848 76.642 193.094 76.7423 193.284C76.8425 193.465 76.9779 193.6 77.1483 193.691C77.3288 193.781 77.5193 193.826 77.7198 193.826C78.0005 193.826 78.2562 193.756 78.4868 193.615C78.7274 193.465 78.9179 193.244 79.0583 192.954C79.2087 192.653 79.2839 192.272 79.2839 191.811L79.5546 192.593C79.5546 193.004 79.4744 193.38 79.314 193.721C79.1636 194.051 78.938 194.317 78.6372 194.518C78.3364 194.708 77.9655 194.803 77.5243 194.803ZM82.6032 194.683C82.4528 194.683 82.3274 194.633 82.2272 194.533C82.1269 194.432 82.0768 194.307 82.0768 194.157C82.0768 194.006 82.1269 193.881 82.2272 193.781C82.3274 193.681 82.4528 193.63 82.6032 193.63L82.0768 194.157V184.682L82.6032 185.209C82.4528 185.209 82.3274 185.158 82.2272 185.058C82.1269 184.958 82.0768 184.833 82.0768 184.682C82.0768 184.532 82.1269 184.406 82.2272 184.306C82.3274 184.206 82.4528 184.156 82.6032 184.156C82.7535 184.156 82.8789 184.206 82.9791 184.306C83.0794 184.406 83.1295 184.532 83.1295 184.682V194.157L82.6032 193.63C82.7535 193.63 82.8789 193.681 82.9791 193.781C83.0794 193.881 83.1295 194.006 83.1295 194.157C83.1295 194.307 83.0794 194.432 82.9791 194.533C82.8789 194.633 82.7535 194.683 82.6032 194.683ZM88.96 194.683C88.8096 194.683 88.6843 194.633 88.584 194.533C88.4837 194.432 88.4336 194.307 88.4336 194.157V189.028C88.4336 188.407 88.0576 188.096 87.3057 188.096C86.9347 188.096 86.6239 188.166 86.3733 188.307C86.1226 188.447 85.897 188.637 85.6965 188.878C85.6363 188.958 85.5662 189.013 85.4859 189.043C85.4158 189.074 85.3456 189.089 85.2754 189.089C85.1451 189.089 85.0248 189.043 84.9145 188.953C84.8042 188.853 84.749 188.723 84.749 188.562C84.749 188.512 84.7591 188.457 84.7791 188.397C84.7992 188.337 84.8393 188.271 84.8994 188.201C85.2203 187.81 85.5662 187.52 85.9371 187.329C86.3181 187.139 86.7743 187.043 87.3057 187.043C87.9674 187.043 88.4938 187.219 88.8848 187.57C89.2858 187.921 89.4863 188.407 89.4863 189.028V194.157C89.4863 194.307 89.4362 194.432 89.3359 194.533C89.2357 194.633 89.1104 194.683 88.96 194.683ZM86.674 194.803C86.3331 194.803 86.0123 194.723 85.7115 194.563C85.4108 194.392 85.1651 194.142 84.9746 193.811C84.7841 193.48 84.6889 193.059 84.6889 192.548C84.6889 191.946 84.8443 191.45 85.1551 191.059C85.4659 190.658 85.897 190.387 86.4484 190.247L87.3809 189.991C87.7318 189.901 87.9925 189.79 88.1629 189.66C88.3434 189.53 88.4336 189.319 88.4336 189.028L88.6291 189.63C88.6291 189.951 88.584 190.201 88.4938 190.382C88.4135 190.562 88.2932 190.703 88.1328 190.803C87.9824 190.893 87.7919 190.968 87.5613 191.029L86.8545 191.224C86.4434 191.324 86.1527 191.48 85.9822 191.69C85.8218 191.901 85.7416 192.187 85.7416 192.548C85.7416 192.848 85.7917 193.094 85.892 193.284C85.9923 193.465 86.1276 193.6 86.2981 193.691C86.4785 193.781 86.669 193.826 86.8695 193.826C87.1503 193.826 87.4059 193.756 87.6365 193.615C87.8772 193.465 88.0677 193.244 88.208 192.954C88.3584 192.653 88.4336 192.272 88.4336 191.811L88.7043 192.593C88.7043 193.004 88.6241 193.38 88.4637 193.721C88.3133 194.051 88.0877 194.317 87.7869 194.518C87.4861 194.708 87.1152 194.803 86.674 194.803ZM91.407 194.683C91.2566 194.683 91.1313 194.633 91.031 194.533C90.9307 194.422 90.8806 194.302 90.8806 194.172C90.8806 194.102 90.8856 194.041 90.8957 193.991C90.9157 193.941 90.9458 193.891 90.9859 193.841L93.1666 190.608V191.239L90.9859 188.006C90.9458 187.966 90.9157 187.921 90.8957 187.87C90.8856 187.81 90.8806 187.745 90.8806 187.675C90.8806 187.545 90.9307 187.429 91.031 187.329C91.1313 187.219 91.2566 187.164 91.407 187.164C91.5875 187.164 91.7328 187.249 91.8431 187.419L93.7832 190.292H93.3921L95.3171 187.419C95.4274 187.249 95.5728 187.164 95.7533 187.164C95.9137 187.164 96.039 187.219 96.1292 187.329C96.2295 187.429 96.2796 187.545 96.2796 187.675C96.2796 187.795 96.2445 187.906 96.1744 188.006L94.0087 191.239V190.608L96.1744 193.841C96.2445 193.941 96.2796 194.051 96.2796 194.172C96.2796 194.302 96.2295 194.422 96.1292 194.533C96.039 194.633 95.9137 194.683 95.7533 194.683C95.5728 194.683 95.4274 194.598 95.3171 194.427L93.3921 191.555H93.7832L91.8431 194.427C91.7328 194.598 91.5875 194.683 91.407 194.683ZM98.9991 197.856C98.8688 197.856 98.7485 197.806 98.6382 197.706C98.5379 197.616 98.4878 197.5 98.4878 197.36C98.4878 197.32 98.4878 197.28 98.4878 197.24C98.4978 197.21 98.5078 197.175 98.5179 197.134L101.781 187.54C101.821 187.409 101.887 187.314 101.977 187.254C102.077 187.194 102.182 187.164 102.293 187.164C102.423 187.164 102.538 187.209 102.639 187.299C102.749 187.389 102.804 187.509 102.804 187.66C102.804 187.73 102.789 187.805 102.759 187.885L99.5104 197.48C99.4703 197.611 99.4052 197.706 99.3149 197.766C99.2247 197.826 99.1194 197.856 98.9991 197.856ZM99.5255 194.788L97.1643 187.885C97.1343 187.805 97.1192 187.73 97.1192 187.66C97.1192 187.509 97.1694 187.389 97.2696 187.299C97.3799 187.209 97.5002 187.164 97.6306 187.164C97.7509 187.164 97.8561 187.194 97.9464 187.254C98.0466 187.314 98.1118 187.409 98.1419 187.54L100.202 193.555L99.5255 194.788ZM70.8064 217.788C70.245 217.788 69.7036 217.673 69.1822 217.442C68.6709 217.202 68.2398 216.861 67.8889 216.42C67.7786 216.269 67.7234 216.129 67.7234 215.999C67.7234 215.848 67.7736 215.728 67.8738 215.638C67.9841 215.538 68.1044 215.487 68.2348 215.487C68.4152 215.487 68.5807 215.578 68.7311 215.758C68.9717 216.089 69.2674 216.335 69.6184 216.495C69.9693 216.655 70.3653 216.736 70.8064 216.736C71.1975 216.736 71.5484 216.665 71.8592 216.525C72.17 216.375 72.4106 216.164 72.581 215.893C72.7515 215.613 72.8367 215.272 72.8367 214.871C72.8367 214.45 72.7214 214.099 72.4908 213.818C72.2602 213.537 71.8742 213.292 71.3328 213.081L69.874 212.465C69.4028 212.274 69.0268 212.033 68.7461 211.743C68.4654 211.442 68.2648 211.116 68.1445 210.765C68.0242 210.404 67.9641 210.033 67.9641 209.652C67.9641 209.171 68.0743 208.735 68.2949 208.344C68.5155 207.943 68.8313 207.627 69.2424 207.396C69.6635 207.156 70.1598 207.035 70.7312 207.035C71.2726 207.035 71.774 207.156 72.2351 207.396C72.6963 207.627 73.0974 207.958 73.4383 208.389C73.5586 208.529 73.6187 208.67 73.6187 208.81C73.6187 208.95 73.5636 209.071 73.4533 209.171C73.343 209.271 73.2227 209.321 73.0924 209.321C72.9119 209.321 72.7465 209.231 72.5961 209.051C72.3454 208.72 72.0697 208.479 71.7689 208.329C71.4682 208.168 71.1223 208.088 70.7312 208.088C70.3503 208.088 70.0294 208.163 69.7687 208.314C69.5181 208.454 69.3276 208.645 69.1973 208.885C69.0769 209.116 69.0168 209.372 69.0168 209.652C69.0168 209.893 69.0519 210.128 69.1221 210.359C69.1922 210.59 69.3226 210.805 69.5131 211.006C69.7036 211.196 69.9693 211.362 70.3102 211.502L71.7689 212.119C72.2502 212.309 72.6462 212.54 72.957 212.81C73.2779 213.081 73.5135 213.387 73.6639 213.728C73.8142 214.069 73.8894 214.45 73.8894 214.871C73.8894 215.512 73.7441 216.049 73.4533 216.48C73.1726 216.911 72.7966 217.237 72.3254 217.458C71.8542 217.678 71.3478 217.788 70.8064 217.788ZM76.8284 217.683C76.678 217.683 76.5527 217.633 76.4524 217.533C76.3522 217.422 76.302 217.292 76.302 217.142V208.329C76.302 208.178 76.3522 208.053 76.4524 207.953C76.5527 207.843 76.678 207.787 76.8284 207.787C76.9788 207.787 77.1041 207.843 77.2044 207.953C77.3046 208.053 77.3548 208.178 77.3548 208.329V217.142C77.3548 217.292 77.3046 217.422 77.2044 217.533C77.1041 217.633 76.9788 217.683 76.8284 217.683ZM75.1139 211.216C74.9636 211.216 74.8332 211.166 74.7229 211.066C74.6227 210.966 74.5725 210.84 74.5725 210.69C74.5725 210.54 74.6227 210.414 74.7229 210.314C74.8332 210.214 74.9636 210.164 75.1139 210.164H78.5428C78.6932 210.164 78.8186 210.214 78.9188 210.314C79.0291 210.414 79.0843 210.54 79.0843 210.69C79.0843 210.84 79.0291 210.966 78.9188 211.066C78.8186 211.166 78.6932 211.216 78.5428 211.216H75.1139ZM84.2015 217.683C84.0511 217.683 83.9258 217.633 83.8255 217.533C83.7253 217.432 83.6752 217.307 83.6752 217.157V212.028C83.6752 211.407 83.2992 211.096 82.5472 211.096C82.1763 211.096 81.8655 211.166 81.6148 211.307C81.3642 211.447 81.1386 211.637 80.9381 211.878C80.8779 211.958 80.8077 212.013 80.7275 212.043C80.6573 212.074 80.5871 212.089 80.517 212.089C80.3866 212.089 80.2663 212.043 80.156 211.953C80.0457 211.853 79.9906 211.723 79.9906 211.562C79.9906 211.512 80.0006 211.457 80.0207 211.397C80.0407 211.337 80.0808 211.271 80.141 211.201C80.4618 210.81 80.8077 210.52 81.1787 210.329C81.5597 210.139 82.0158 210.043 82.5472 210.043C83.2089 210.043 83.7353 210.219 84.1263 210.57C84.5274 210.921 84.7279 211.407 84.7279 212.028V217.157C84.7279 217.307 84.6778 217.432 84.5775 217.533C84.4772 217.633 84.3519 217.683 84.2015 217.683ZM81.9156 217.803C81.5747 217.803 81.2539 217.723 80.9531 217.563C80.6523 217.392 80.4067 217.142 80.2162 216.811C80.0257 216.48 79.9304 216.059 79.9304 215.548C79.9304 214.946 80.0858 214.45 80.3966 214.059C80.7075 213.658 81.1386 213.387 81.69 213.247L82.6224 212.991C82.9733 212.901 83.234 212.79 83.4045 212.66C83.5849 212.53 83.6752 212.319 83.6752 212.028L83.8707 212.63C83.8707 212.951 83.8255 213.201 83.7353 213.382C83.6551 213.562 83.5348 213.703 83.3744 213.803C83.224 213.893 83.0335 213.968 82.8029 214.029L82.0961 214.224C81.685 214.324 81.3942 214.48 81.2238 214.69C81.0634 214.901 80.9832 215.187 80.9832 215.548C80.9832 215.848 81.0333 216.094 81.1336 216.284C81.2338 216.465 81.3692 216.6 81.5396 216.691C81.7201 216.781 81.9106 216.826 82.1111 216.826C82.3918 216.826 82.6475 216.756 82.8781 216.615C83.1187 216.465 83.3092 216.244 83.4496 215.954C83.6 215.653 83.6752 215.272 83.6752 214.811L83.9459 215.593C83.9459 216.004 83.8657 216.38 83.7052 216.721C83.5548 217.051 83.3293 217.317 83.0285 217.518C82.7277 217.708 82.3567 217.803 81.9156 217.803ZM87.1298 217.683C86.9694 217.683 86.839 217.638 86.7388 217.548C86.6485 217.447 86.6034 217.317 86.6034 217.157C86.6034 216.996 86.6485 216.871 86.7388 216.781C86.839 216.681 86.9694 216.63 87.1298 216.63L86.6034 217.157V210.69L87.1298 211.216C86.9694 211.216 86.839 211.171 86.7388 211.081C86.6485 210.981 86.6034 210.85 86.6034 210.69C86.6034 210.53 86.6485 210.404 86.7388 210.314C86.839 210.214 86.9694 210.164 87.1298 210.164C87.2902 210.164 87.4155 210.214 87.5058 210.314C87.606 210.404 87.6562 210.53 87.6562 210.69V217.157L87.1298 216.63C87.2902 216.63 87.4155 216.681 87.5058 216.781C87.606 216.871 87.6562 216.996 87.6562 217.157C87.6562 217.317 87.606 217.447 87.5058 217.548C87.4155 217.638 87.2902 217.683 87.1298 217.683ZM87.6562 213.457L87.3554 211.908C87.3855 211.647 87.4707 211.372 87.611 211.081C87.7514 210.79 87.9519 210.545 88.2126 210.344C88.4733 210.144 88.7891 210.043 89.1601 210.043C89.6313 210.043 89.9972 210.189 90.2579 210.479C90.5286 210.77 90.664 211.156 90.664 211.637V211.803C90.664 211.953 90.6138 212.079 90.5136 212.179C90.4133 212.279 90.288 212.329 90.1376 212.329C89.9872 212.329 89.8619 212.279 89.7616 212.179C89.6614 212.079 89.6112 211.953 89.6112 211.803V211.637C89.6112 211.487 89.5812 211.367 89.521 211.276C89.4709 211.176 89.3957 211.101 89.2954 211.051C89.1951 210.991 89.0748 210.961 88.9345 210.961C88.6838 210.961 88.4632 211.061 88.2728 211.261C88.0823 211.452 87.9319 211.738 87.8216 212.119C87.7113 212.49 87.6562 212.936 87.6562 213.457Z" fill="black"/>
<path d="M213.807 217.658C211.3 217.658 209.128 216.897 209.128 215.694C209.128 212.82 211.208 210.472 213.807 210.472C216.405 210.472 218.486 212.82 218.486 215.694C218.486 216.897 216.313 217.658 213.807 217.658ZM213.807 216.989C214.726 216.989 215.536 216.897 216.188 216.739C216.171 216.037 216.079 215.352 215.904 214.692C215.845 214.483 216.012 214.274 216.23 214.274C216.388 214.274 216.522 214.382 216.556 214.525C216.723 215.176 216.815 215.853 216.848 216.538C217.458 216.304 217.817 216.003 217.817 215.694C217.817 213.505 216.547 211.751 214.784 211.274C215.077 211.584 215.327 211.918 215.553 212.252C215.678 212.444 215.561 212.77 215.269 212.77C215.152 212.77 215.043 212.711 214.985 212.62C214.634 212.077 214.216 211.592 213.681 211.141C211.593 211.208 209.947 212.996 209.805 215.36H215.227C215.411 215.36 215.561 215.51 215.561 215.694C215.561 215.878 215.411 216.028 215.227 216.028H209.938C210.381 216.555 211.868 216.989 213.807 216.989ZM213.807 212.77C213.623 212.77 213.473 212.62 213.473 212.436C213.473 212.252 213.623 212.102 213.807 212.102C213.991 212.102 214.141 212.252 214.141 212.436C214.141 212.62 213.991 212.77 213.807 212.77ZM213.807 213.856C213.623 213.856 213.473 213.706 213.473 213.522C213.473 213.338 213.623 213.188 213.807 213.188C213.991 213.188 214.141 213.338 214.141 213.522C214.141 213.706 213.991 213.856 213.807 213.856ZM215.862 213.856C215.678 213.856 215.528 213.706 215.528 213.522C215.528 213.338 215.678 213.188 215.862 213.188C216.046 213.188 216.196 213.338 216.196 213.522C216.196 213.706 216.046 213.856 215.862 213.856ZM213.807 214.942C213.623 214.942 213.473 214.792 213.473 214.608C213.473 214.424 213.623 214.274 213.807 214.274C213.991 214.274 214.141 214.424 214.141 214.608C214.141 214.792 213.991 214.942 213.807 214.942ZM225.451 217.056C224.841 217.056 224.315 216.814 223.88 216.329C223.797 216.237 223.747 216.162 223.747 216.053C223.747 215.853 223.905 215.711 224.081 215.711C224.206 215.711 224.306 215.786 224.398 215.895C224.666 216.212 225.025 216.388 225.451 216.388C226.086 216.388 226.42 215.928 226.42 215.368C226.42 214.725 225.969 214.324 225.225 214.324H224.891C224.699 214.324 224.557 214.182 224.549 213.99C224.549 213.798 224.691 213.656 224.883 213.656H225.092C225.835 213.656 226.22 213.179 226.22 212.611C226.22 212.152 225.977 211.742 225.384 211.742C225.008 211.742 224.791 211.893 224.524 212.244C224.44 212.352 224.34 212.419 224.214 212.419C224.047 212.419 223.88 212.277 223.88 212.093C223.88 211.993 223.922 211.909 223.989 211.826C224.373 211.341 224.833 211.074 225.384 211.074C226.328 211.074 226.888 211.776 226.888 212.578C226.888 213.104 226.637 213.706 226.044 213.948C226.754 214.182 227.089 214.708 227.089 215.385C227.089 216.304 226.454 217.056 225.451 217.056ZM230.176 216.989C229.926 216.989 229.759 216.822 229.759 216.572C229.759 216.321 229.926 216.154 230.176 216.154C230.427 216.154 230.594 216.321 230.594 216.572C230.594 216.822 230.427 216.989 230.176 216.989ZM233.648 216.989C233.456 216.989 233.314 216.847 233.314 216.655V216.045C233.314 215.41 233.682 215.051 234.1 214.633L235.06 213.689C235.578 213.179 235.746 212.887 235.746 212.494C235.746 212.085 235.487 211.742 234.877 211.742C234.467 211.742 234.175 211.893 233.907 212.244C233.824 212.352 233.724 212.419 233.598 212.419C233.431 212.419 233.264 212.277 233.264 212.093C233.264 211.993 233.306 211.909 233.373 211.826C233.757 211.341 234.292 211.074 234.877 211.074C235.837 211.074 236.414 211.692 236.414 212.494C236.414 213.154 236.105 213.597 235.52 214.174L234.559 215.109C234.108 215.544 233.983 215.761 233.983 216.045V216.321H236.105C236.297 216.321 236.439 216.463 236.439 216.655C236.439 216.847 236.297 216.989 236.105 216.989H233.648ZM240.237 217.006C240.036 217.006 239.903 216.872 239.903 216.672V215.402H237.981C237.781 215.402 237.647 215.268 237.647 215.068C237.647 214.967 237.689 214.892 237.756 214.792L239.936 211.308C240.003 211.208 240.103 211.141 240.237 211.141C240.438 211.141 240.571 211.274 240.571 211.475V214.733H241.156C241.357 214.733 241.49 214.867 241.49 215.068C241.49 215.268 241.357 215.402 241.156 215.402H240.571V216.672C240.571 216.872 240.438 217.006 240.237 217.006ZM238.583 214.733H239.903V212.578L238.583 214.733ZM244.202 217.056C243.041 217.056 242.364 216.321 242.364 215.343C242.364 214.692 242.732 214.19 243.208 213.965C242.79 213.748 242.447 213.288 242.447 212.695C242.447 211.759 243.108 211.074 244.202 211.074C245.297 211.074 245.957 211.759 245.957 212.695C245.957 213.288 245.622 213.748 245.205 213.965C245.681 214.19 246.04 214.692 246.04 215.343C246.04 216.321 245.363 217.056 244.202 217.056ZM244.202 213.647C244.912 213.647 245.288 213.263 245.288 212.695C245.288 212.127 244.912 211.742 244.202 211.742C243.492 211.742 243.116 212.127 243.116 212.695C243.116 213.263 243.492 213.647 244.202 213.647ZM244.202 216.388C244.979 216.388 245.372 215.97 245.372 215.343C245.372 214.7 244.979 214.299 244.202 214.299C243.425 214.299 243.032 214.7 243.032 215.343C243.032 215.97 243.425 216.388 244.202 216.388ZM248.877 216.989C248.627 216.989 248.46 216.822 248.46 216.572C248.46 216.321 248.627 216.154 248.877 216.154C249.128 216.154 249.295 216.321 249.295 216.572C249.295 216.822 249.128 216.989 248.877 216.989ZM253.552 217.056C252.257 217.056 251.714 215.611 251.714 214.065C251.714 212.519 252.257 211.074 253.552 211.074C254.848 211.074 255.391 212.519 255.391 214.065C255.391 215.611 254.848 217.056 253.552 217.056ZM253.552 216.388C254.405 216.388 254.722 215.235 254.722 214.065C254.722 212.895 254.405 211.742 253.552 211.742C252.7 211.742 252.383 212.895 252.383 214.065C252.383 215.235 252.7 216.388 253.552 216.388ZM253.552 214.733C253.31 214.733 253.135 214.558 253.135 214.316V213.814C253.135 213.572 253.31 213.397 253.552 213.397C253.795 213.397 253.97 213.572 253.97 213.814V214.316C253.97 214.558 253.795 214.733 253.552 214.733ZM258.186 217.056C257.601 217.056 257.233 216.839 256.866 216.471C256.807 216.413 256.766 216.329 256.766 216.237C256.766 216.053 256.916 215.903 257.1 215.903C257.192 215.903 257.275 215.937 257.342 215.995C257.593 216.254 257.802 216.388 258.186 216.388C258.771 216.388 259.222 215.794 259.306 214.341C259.005 214.75 258.579 214.967 258.052 214.967C257.25 214.967 256.473 214.341 256.473 213.046C256.473 211.876 257.133 211.074 258.127 211.074C259.122 211.074 259.982 211.876 259.982 213.89C259.982 216.204 259.163 217.056 258.186 217.056ZM258.127 214.349C258.729 214.349 259.113 213.848 259.113 213.046C259.113 212.244 258.729 211.742 258.127 211.742C257.526 211.742 257.142 212.244 257.142 213.046C257.142 213.848 257.526 214.349 258.127 214.349ZM262.903 217.056C262.293 217.056 261.767 216.772 261.332 216.212C261.24 216.095 261.19 216.028 261.19 215.911C261.19 215.711 261.349 215.577 261.524 215.577C261.683 215.577 261.767 215.669 261.833 215.761C262.101 216.129 262.46 216.388 262.903 216.388C263.638 216.388 263.947 215.761 263.947 215.118C263.947 214.324 263.571 213.773 262.911 213.773C262.477 213.773 262.159 213.931 262.017 214.107C261.95 214.19 261.859 214.257 261.733 214.257C261.541 214.257 261.399 214.115 261.399 213.923V211.475C261.399 211.283 261.541 211.141 261.733 211.141H264.19C264.382 211.141 264.524 211.283 264.524 211.475C264.524 211.667 264.382 211.809 264.19 211.809H262.067V213.33C262.318 213.179 262.619 213.104 262.911 213.104C263.931 213.104 264.616 213.931 264.616 215.118C264.616 216.187 263.989 217.056 262.903 217.056ZM267.578 216.989C267.328 216.989 267.16 216.822 267.16 216.572C267.16 216.321 267.328 216.154 267.578 216.154C267.829 216.154 267.996 216.321 267.996 216.572C267.996 216.822 267.829 216.989 267.578 216.989ZM272.354 217.056C271.359 217.056 270.499 216.254 270.499 214.24C270.499 211.926 271.376 211.074 272.437 211.074C273.014 211.074 273.381 211.291 273.749 211.659C273.807 211.717 273.849 211.801 273.849 211.893C273.849 212.077 273.699 212.227 273.515 212.227C273.423 212.227 273.34 212.193 273.281 212.127C273.022 211.876 272.813 211.742 272.437 211.742C271.777 211.742 271.267 212.327 271.184 213.789C271.476 213.38 271.902 213.163 272.429 213.163C273.231 213.163 274.008 213.789 274.008 215.084C274.008 216.254 273.348 217.056 272.354 217.056ZM272.354 216.388C272.955 216.388 273.34 215.886 273.34 215.084C273.34 214.282 272.955 213.781 272.354 213.781C271.752 213.781 271.368 214.282 271.368 215.084C271.368 215.886 271.752 216.388 272.354 216.388ZM276.294 216.989C276.101 216.989 275.959 216.839 275.959 216.647C275.959 214.641 276.904 212.862 277.764 211.809H275.425C275.241 211.809 275.09 211.659 275.09 211.475C275.09 211.291 275.241 211.141 275.425 211.141H278.399C278.583 211.141 278.725 211.299 278.725 211.475C278.725 211.55 278.7 211.625 278.658 211.675C277.363 213.413 276.628 214.825 276.628 216.663C276.628 216.856 276.469 216.989 276.294 216.989ZM281.604 217.056C280.309 217.056 279.766 215.611 279.766 214.065C279.766 212.519 280.309 211.074 281.604 211.074C282.899 211.074 283.442 212.519 283.442 214.065C283.442 215.611 282.899 217.056 281.604 217.056ZM281.604 216.388C282.456 216.388 282.774 215.235 282.774 214.065C282.774 212.895 282.456 211.742 281.604 211.742C280.752 211.742 280.434 212.895 280.434 214.065C280.434 215.235 280.752 216.388 281.604 216.388ZM281.604 214.733C281.362 214.733 281.186 214.558 281.186 214.316V213.814C281.186 213.572 281.362 213.397 281.604 213.397C281.846 213.397 282.022 213.572 282.022 213.814V214.316C282.022 214.558 281.846 214.733 281.604 214.733Z" fill="black"/>
<path d="M326.711 216.989C326.519 216.989 326.377 216.847 326.377 216.655V211.475C326.377 211.283 326.519 211.141 326.711 211.141C326.903 211.141 327.045 211.283 327.045 211.475V216.321H329.217C329.409 216.321 329.551 216.463 329.551 216.655C329.551 216.847 329.409 216.989 329.217 216.989H326.711ZM331.219 216.989C331.027 216.989 330.885 216.847 330.885 216.655C330.885 216.463 331.027 216.321 331.219 216.321H332.389V212.277L331.595 213.071C331.52 213.146 331.444 213.188 331.353 213.188C331.144 213.188 331.01 213.021 331.01 212.854C331.01 212.77 331.043 212.67 331.119 212.595L332.48 211.233C332.539 211.174 332.622 211.141 332.723 211.141C332.915 211.141 333.057 211.283 333.057 211.475V216.321H334.06C334.252 216.321 334.394 216.463 334.394 216.655C334.394 216.847 334.252 216.989 334.06 216.989H331.219Z" fill="black"/>
<path d="M122.49 192.036C122.339 192.036 122.209 191.986 122.099 191.886C121.998 191.776 121.948 191.645 121.948 191.495C121.948 191.364 122.003 191.239 122.114 191.119L122.956 190.292C123.126 190.121 123.317 189.996 123.527 189.916C123.738 189.825 123.963 189.78 124.204 189.78C124.435 189.78 124.655 189.82 124.866 189.901C125.076 189.981 125.267 190.106 125.437 190.277L125.949 190.788C126.029 190.858 126.109 190.913 126.189 190.953C126.279 190.984 126.37 190.999 126.46 190.999C126.56 190.999 126.65 190.984 126.731 190.953C126.821 190.913 126.906 190.858 126.986 190.788L127.798 189.976C127.909 189.856 128.034 189.795 128.174 189.795C128.325 189.795 128.45 189.851 128.55 189.961C128.661 190.061 128.716 190.186 128.716 190.337C128.716 190.477 128.661 190.603 128.55 190.713L127.708 191.555C127.538 191.715 127.347 191.841 127.137 191.931C126.926 192.011 126.701 192.051 126.46 192.051C126.229 192.051 126.009 192.011 125.798 191.931C125.588 191.851 125.397 191.73 125.227 191.57L124.715 191.044C124.645 190.973 124.565 190.923 124.475 190.893C124.385 190.853 124.294 190.833 124.204 190.833C124.104 190.833 124.009 190.853 123.918 190.893C123.838 190.933 123.758 190.989 123.678 191.059L122.866 191.871C122.755 191.981 122.63 192.036 122.49 192.036ZM142.464 194.803C141.992 194.803 141.591 194.668 141.26 194.397C140.93 194.127 140.719 193.766 140.629 193.315V188.532C140.719 188.071 140.93 187.71 141.26 187.449C141.591 187.179 141.992 187.043 142.464 187.043C142.995 187.043 143.441 187.219 143.802 187.57C144.173 187.921 144.454 188.392 144.644 188.983C144.845 189.565 144.945 190.211 144.945 190.923C144.945 191.635 144.845 192.287 144.644 192.878C144.454 193.46 144.173 193.926 143.802 194.277C143.441 194.628 142.995 194.803 142.464 194.803ZM140.283 194.683C140.133 194.683 140.007 194.633 139.907 194.533C139.807 194.432 139.757 194.307 139.757 194.157V184.682C139.757 184.532 139.807 184.406 139.907 184.306C140.007 184.206 140.133 184.156 140.283 184.156C140.433 184.156 140.559 184.206 140.659 184.306C140.759 184.406 140.809 184.532 140.809 184.682V194.157C140.809 194.307 140.759 194.432 140.659 194.533C140.559 194.633 140.433 194.683 140.283 194.683ZM142.373 193.751C142.714 193.751 142.995 193.62 143.216 193.36C143.436 193.099 143.602 192.753 143.712 192.322C143.832 191.891 143.892 191.425 143.892 190.923C143.892 190.412 143.832 189.946 143.712 189.525C143.602 189.094 143.436 188.748 143.216 188.487C142.995 188.226 142.714 188.096 142.373 188.096C141.892 188.096 141.511 188.362 141.23 188.893C140.95 189.424 140.809 190.101 140.809 190.923C140.809 191.745 140.95 192.422 141.23 192.954C141.511 193.485 141.892 193.751 142.373 193.751ZM150.578 194.803C150.017 194.803 149.541 194.683 149.15 194.442C148.758 194.192 148.458 193.841 148.247 193.39C148.047 192.939 147.946 192.417 147.946 191.826V187.705C147.946 187.555 147.997 187.429 148.097 187.329C148.197 187.219 148.322 187.164 148.473 187.164C148.623 187.164 148.748 187.219 148.849 187.329C148.949 187.429 148.999 187.555 148.999 187.705V191.826C148.999 192.267 149.059 192.633 149.18 192.924C149.31 193.204 149.49 193.415 149.721 193.555C149.952 193.686 150.237 193.751 150.578 193.751C150.919 193.751 151.205 193.686 151.435 193.555C151.676 193.415 151.857 193.204 151.977 192.924C152.097 192.633 152.157 192.267 152.157 191.826V187.705C152.157 187.555 152.207 187.429 152.308 187.329C152.408 187.219 152.533 187.164 152.684 187.164C152.834 187.164 152.959 187.219 153.06 187.329C153.16 187.429 153.21 187.555 153.21 187.705V191.826C153.21 192.417 153.105 192.939 152.894 193.39C152.694 193.841 152.398 194.192 152.007 194.442C151.616 194.683 151.14 194.803 150.578 194.803ZM159.084 194.803C158.613 194.803 158.197 194.718 157.836 194.548C157.475 194.367 157.149 194.147 156.858 193.886C156.778 193.816 156.723 193.746 156.693 193.675C156.673 193.605 156.663 193.54 156.663 193.48C156.663 193.32 156.708 193.189 156.798 193.089C156.898 192.989 157.018 192.939 157.159 192.939C157.239 192.939 157.314 192.959 157.384 192.999C157.455 193.029 157.53 193.079 157.61 193.149C157.811 193.32 158.026 193.465 158.257 193.585C158.487 193.696 158.763 193.751 159.084 193.751C159.455 193.751 159.746 193.655 159.956 193.465C160.167 193.264 160.272 192.994 160.272 192.653C160.272 192.152 159.951 191.791 159.309 191.57L158.437 191.284C157.926 191.104 157.52 190.823 157.219 190.442C156.928 190.051 156.783 189.59 156.783 189.059C156.783 188.657 156.878 188.307 157.069 188.006C157.259 187.705 157.515 187.469 157.836 187.299C158.156 187.128 158.517 187.043 158.918 187.043C159.37 187.043 159.766 187.123 160.107 187.284C160.447 187.444 160.753 187.65 161.024 187.9C161.094 187.961 161.139 188.026 161.159 188.096C161.189 188.166 161.204 188.236 161.204 188.307C161.204 188.447 161.154 188.572 161.054 188.683C160.954 188.783 160.828 188.833 160.678 188.833C160.548 188.833 160.422 188.783 160.302 188.683C160.081 188.482 159.861 188.337 159.64 188.246C159.43 188.146 159.189 188.096 158.918 188.096C158.628 188.096 158.372 188.176 158.151 188.337C157.941 188.497 157.836 188.738 157.836 189.059C157.836 189.369 157.921 189.625 158.091 189.825C158.262 190.026 158.512 190.186 158.843 190.307L159.715 190.592C160.187 190.753 160.573 191.009 160.873 191.359C161.174 191.7 161.325 192.131 161.325 192.653C161.325 193.315 161.109 193.841 160.678 194.232C160.247 194.613 159.715 194.803 159.084 194.803ZM122.49 215.036C122.339 215.036 122.209 214.986 122.099 214.886C121.998 214.776 121.948 214.645 121.948 214.495C121.948 214.364 122.003 214.239 122.114 214.119L122.956 213.292C123.126 213.121 123.317 212.996 123.527 212.916C123.738 212.825 123.963 212.78 124.204 212.78C124.435 212.78 124.655 212.82 124.866 212.901C125.076 212.981 125.267 213.106 125.437 213.277L125.949 213.788C126.029 213.858 126.109 213.913 126.189 213.953C126.279 213.984 126.37 213.999 126.46 213.999C126.56 213.999 126.65 213.984 126.731 213.953C126.821 213.913 126.906 213.858 126.986 213.788L127.798 212.976C127.909 212.856 128.034 212.795 128.174 212.795C128.325 212.795 128.45 212.851 128.55 212.961C128.661 213.061 128.716 213.186 128.716 213.337C128.716 213.477 128.661 213.603 128.55 213.713L127.708 214.555C127.538 214.715 127.347 214.841 127.137 214.931C126.926 215.011 126.701 215.051 126.46 215.051C126.229 215.051 126.009 215.011 125.798 214.931C125.588 214.851 125.397 214.73 125.227 214.57L124.715 214.044C124.645 213.973 124.565 213.923 124.475 213.893C124.385 213.853 124.294 213.833 124.204 213.833C124.104 213.833 124.009 213.853 123.918 213.893C123.838 213.933 123.758 213.989 123.678 214.059L122.866 214.871C122.755 214.981 122.63 215.036 122.49 215.036ZM145.171 217.683C145.02 217.683 144.895 217.633 144.795 217.533C144.694 217.432 144.644 217.307 144.644 217.157V212.329C144.644 211.878 144.564 211.547 144.404 211.337C144.243 211.116 144.023 211.006 143.742 211.006C143.531 211.006 143.351 211.071 143.201 211.201C143.05 211.322 142.94 211.502 142.87 211.743C142.799 211.973 142.764 212.259 142.764 212.6L142.223 211.457C142.383 210.966 142.624 210.61 142.945 210.389C143.276 210.159 143.617 210.043 143.968 210.043C144.439 210.043 144.845 210.234 145.186 210.615C145.527 210.996 145.697 211.567 145.697 212.329V217.157C145.697 217.307 145.647 217.432 145.547 217.533C145.446 217.633 145.321 217.683 145.171 217.683ZM139.305 217.668C139.155 217.668 139.03 217.618 138.929 217.518C138.829 217.417 138.779 217.292 138.779 217.142V210.69C138.779 210.54 138.829 210.414 138.929 210.314C139.03 210.214 139.155 210.164 139.305 210.164C139.456 210.164 139.581 210.214 139.681 210.314C139.782 210.414 139.832 210.54 139.832 210.69V217.142C139.832 217.292 139.782 217.417 139.681 217.518C139.581 217.618 139.456 217.668 139.305 217.668ZM142.238 217.683C142.088 217.683 141.962 217.633 141.862 217.533C141.762 217.432 141.712 217.307 141.712 217.157V212.329C141.712 211.878 141.631 211.547 141.471 211.337C141.311 211.116 141.09 211.006 140.809 211.006C140.599 211.006 140.418 211.071 140.268 211.201C140.118 211.322 140.007 211.502 139.937 211.743C139.867 211.973 139.832 212.259 139.832 212.6L139.576 211.607C139.636 211.276 139.732 210.996 139.862 210.765C140.002 210.535 140.173 210.359 140.373 210.239C140.584 210.108 140.819 210.043 141.08 210.043C141.521 210.043 141.912 210.234 142.253 210.615C142.594 210.996 142.764 211.567 142.764 212.329V217.157C142.764 217.307 142.714 217.432 142.614 217.533C142.514 217.633 142.388 217.683 142.238 217.683ZM152.308 217.683C152.157 217.683 152.032 217.633 151.932 217.533C151.831 217.432 151.781 217.307 151.781 217.157V212.028C151.781 211.407 151.405 211.096 150.653 211.096C150.282 211.096 149.972 211.166 149.721 211.307C149.47 211.447 149.245 211.637 149.044 211.878C148.984 211.958 148.914 212.013 148.834 212.043C148.764 212.074 148.693 212.089 148.623 212.089C148.493 212.089 148.372 212.043 148.262 211.953C148.152 211.853 148.097 211.723 148.097 211.562C148.097 211.512 148.107 211.457 148.127 211.397C148.147 211.337 148.187 211.271 148.247 211.201C148.568 210.81 148.914 210.52 149.285 210.329C149.666 210.139 150.122 210.043 150.653 210.043C151.315 210.043 151.842 210.219 152.233 210.57C152.634 210.921 152.834 211.407 152.834 212.028V217.157C152.834 217.307 152.784 217.432 152.684 217.533C152.583 217.633 152.458 217.683 152.308 217.683ZM150.022 217.803C149.681 217.803 149.355 217.723 149.044 217.563C148.743 217.392 148.498 217.142 148.307 216.811C148.127 216.48 148.037 216.059 148.037 215.548C148.037 214.946 148.192 214.45 148.503 214.059C148.814 213.658 149.24 213.387 149.781 213.247L150.729 212.991C151.08 212.901 151.34 212.79 151.511 212.66C151.691 212.53 151.781 212.319 151.781 212.028L151.977 212.63C151.977 212.951 151.932 213.201 151.842 213.382C151.761 213.562 151.641 213.703 151.481 213.803C151.33 213.893 151.14 213.968 150.909 214.029L150.202 214.224C149.791 214.324 149.5 214.48 149.33 214.69C149.17 214.901 149.089 215.187 149.089 215.548C149.089 215.848 149.139 216.094 149.24 216.284C149.34 216.465 149.475 216.6 149.646 216.691C149.816 216.781 150.007 216.826 150.217 216.826C150.498 216.826 150.754 216.756 150.984 216.615C151.215 216.465 151.405 216.244 151.556 215.954C151.706 215.653 151.781 215.272 151.781 214.811L152.052 215.593C152.052 216.004 151.972 216.38 151.811 216.721C151.661 217.051 151.435 217.317 151.135 217.518C150.834 217.708 150.463 217.803 150.022 217.803ZM156.512 217.683C156.362 217.683 156.236 217.633 156.136 217.533C156.036 217.432 155.986 217.307 155.986 217.157C155.986 217.006 156.036 216.881 156.136 216.781C156.236 216.681 156.362 216.63 156.512 216.63H158.091V211.216H156.512C156.362 211.216 156.236 211.166 156.136 211.066C156.036 210.966 155.986 210.84 155.986 210.69C155.986 210.54 156.036 210.414 156.136 210.314C156.236 210.214 156.362 210.164 156.512 210.164H158.618C158.768 210.164 158.893 210.214 158.994 210.314C159.094 210.414 159.144 210.54 159.144 210.69V216.63H161.325C161.475 216.63 161.6 216.681 161.701 216.781C161.801 216.881 161.851 217.006 161.851 217.157C161.851 217.307 161.801 217.432 161.701 217.533C161.6 217.633 161.475 217.683 161.325 217.683H156.512ZM159.144 213.472L158.843 211.908C158.863 211.647 158.959 211.372 159.129 211.081C159.299 210.79 159.53 210.545 159.821 210.344C160.122 210.144 160.462 210.043 160.843 210.043C161.335 210.043 161.726 210.189 162.016 210.479C162.307 210.77 162.453 211.156 162.453 211.637V211.803C162.453 211.953 162.402 212.079 162.302 212.179C162.202 212.279 162.077 212.329 161.926 212.329C161.776 212.329 161.651 212.279 161.55 212.179C161.45 212.079 161.4 211.953 161.4 211.803V211.637C161.4 211.497 161.365 211.377 161.295 211.276C161.234 211.166 161.144 211.086 161.024 211.036C160.914 210.976 160.783 210.946 160.633 210.946C160.362 210.946 160.112 211.046 159.881 211.246C159.65 211.447 159.47 211.738 159.34 212.119C159.209 212.5 159.144 212.951 159.144 213.472ZM167.71 217.803C167.239 217.803 166.838 217.668 166.507 217.397C166.176 217.127 165.965 216.766 165.875 216.315V211.532C165.965 211.071 166.176 210.71 166.507 210.449C166.838 210.179 167.239 210.043 167.71 210.043C168.241 210.043 168.687 210.219 169.048 210.57C169.419 210.921 169.7 211.392 169.89 211.983C170.091 212.565 170.191 213.211 170.191 213.923C170.191 214.635 170.091 215.287 169.89 215.878C169.7 216.46 169.419 216.926 169.048 217.277C168.687 217.628 168.241 217.803 167.71 217.803ZM165.529 217.683C165.379 217.683 165.253 217.633 165.153 217.533C165.053 217.432 165.003 217.307 165.003 217.157V207.682C165.003 207.532 165.053 207.406 165.153 207.306C165.253 207.206 165.379 207.156 165.529 207.156C165.68 207.156 165.805 207.206 165.905 207.306C166.005 207.406 166.056 207.532 166.056 207.682V217.157C166.056 217.307 166.005 217.432 165.905 217.533C165.805 217.633 165.68 217.683 165.529 217.683ZM167.62 216.751C167.96 216.751 168.241 216.62 168.462 216.36C168.682 216.099 168.848 215.753 168.958 215.322C169.078 214.891 169.139 214.425 169.139 213.923C169.139 213.412 169.078 212.946 168.958 212.525C168.848 212.094 168.682 211.748 168.462 211.487C168.241 211.226 167.96 211.096 167.62 211.096C167.138 211.096 166.757 211.362 166.477 211.893C166.196 212.424 166.056 213.101 166.056 213.923C166.056 214.745 166.196 215.422 166.477 215.954C166.757 216.485 167.138 216.751 167.62 216.751ZM175.824 217.803C175.263 217.803 174.787 217.683 174.396 217.442C174.005 217.192 173.704 216.841 173.493 216.39C173.293 215.939 173.193 215.417 173.193 214.826V210.705C173.193 210.555 173.243 210.429 173.343 210.329C173.443 210.219 173.569 210.164 173.719 210.164C173.869 210.164 173.995 210.219 174.095 210.329C174.195 210.429 174.245 210.555 174.245 210.705V214.826C174.245 215.267 174.305 215.633 174.426 215.924C174.556 216.204 174.737 216.415 174.967 216.555C175.198 216.686 175.484 216.751 175.824 216.751C176.165 216.751 176.451 216.686 176.682 216.555C176.922 216.415 177.103 216.204 177.223 215.924C177.343 215.633 177.404 215.267 177.404 214.826V210.705C177.404 210.555 177.454 210.429 177.554 210.329C177.654 210.219 177.779 210.164 177.93 210.164C178.08 210.164 178.206 210.219 178.306 210.329C178.406 210.429 178.456 210.555 178.456 210.705V214.826C178.456 215.417 178.351 215.939 178.14 216.39C177.94 216.841 177.644 217.192 177.253 217.442C176.862 217.683 176.386 217.803 175.824 217.803ZM184.33 217.803C183.859 217.803 183.443 217.718 183.082 217.548C182.721 217.367 182.395 217.147 182.104 216.886C182.024 216.816 181.969 216.746 181.939 216.675C181.919 216.605 181.909 216.54 181.909 216.48C181.909 216.32 181.954 216.189 182.044 216.089C182.144 215.989 182.265 215.939 182.405 215.939C182.485 215.939 182.56 215.959 182.631 215.999C182.701 216.029 182.776 216.079 182.856 216.149C183.057 216.32 183.272 216.465 183.503 216.585C183.734 216.696 184.009 216.751 184.33 216.751C184.701 216.751 184.992 216.655 185.202 216.465C185.413 216.264 185.518 215.994 185.518 215.653C185.518 215.152 185.197 214.791 184.556 214.57L183.683 214.284C183.172 214.104 182.766 213.823 182.465 213.442C182.174 213.051 182.029 212.59 182.029 212.059C182.029 211.657 182.124 211.307 182.315 211.006C182.505 210.705 182.761 210.469 183.082 210.299C183.403 210.128 183.764 210.043 184.165 210.043C184.616 210.043 185.012 210.123 185.353 210.284C185.694 210.444 185.999 210.65 186.27 210.9C186.34 210.961 186.385 211.026 186.405 211.096C186.436 211.166 186.451 211.236 186.451 211.307C186.451 211.447 186.4 211.572 186.3 211.683C186.2 211.783 186.075 211.833 185.924 211.833C185.794 211.833 185.669 211.783 185.548 211.683C185.328 211.482 185.107 211.337 184.886 211.246C184.676 211.146 184.435 211.096 184.165 211.096C183.874 211.096 183.618 211.176 183.398 211.337C183.187 211.497 183.082 211.738 183.082 212.059C183.082 212.369 183.167 212.625 183.337 212.825C183.508 213.026 183.759 213.186 184.089 213.307L184.962 213.592C185.433 213.753 185.819 214.009 186.12 214.359C186.42 214.7 186.571 215.131 186.571 215.653C186.571 216.315 186.355 216.841 185.924 217.232C185.493 217.613 184.962 217.803 184.33 217.803Z" fill="black"/>
<rect x="323.591" y="209.154" width="13.368" height="10.026" rx="1.3925" stroke="black" stroke-width="0.557001"/>
<path d="M50.6286 41.9751H34.7588" stroke="black" stroke-width="1.25" stroke-linecap="round" stroke-linejoin="round"/>
<path d="M42.6959 43.959C40.1989 43.959 38.0618 45.4968 37.1787 47.6768C38.6067 49.0591 40.5518 49.9096 42.6959 49.9096C44.8401 49.9096 46.7852 49.0586 48.2132 47.6768C47.3301 45.4968 45.1925 43.959 42.6959 43.959Z" stroke="black" stroke-width="1.25" stroke-linecap="round" stroke-linejoin="round"/>
<path d="M50.6305 41.9749C50.6305 37.5926 47.078 34.04 42.6956 34.04C38.3133 34.04 34.7607 37.5926 34.7607 41.9749C34.7607 44.2132 35.6874 46.2344 37.1779 47.6765C38.061 45.4965 40.1986 43.9587 42.6951 43.9587C45.1916 43.9587 47.3292 45.4965 48.2123 47.6765C49.7028 46.2339 50.6295 44.2126 50.6295 41.9749H50.6305Z" stroke="black" stroke-width="1.25" stroke-linecap="round" stroke-linejoin="round"/>
<path d="M66.4708 49.882C66.4708 41.1173 59.3657 34.0128 50.6016 34.0122V49.8815H66.4708V49.882Z" stroke="black" stroke-width="1.25" stroke-linecap="round" stroke-linejoin="round"/>
<path d="M50.6016 34.0122L66.4708 49.8815" stroke="black" stroke-width="1.25" stroke-linecap="round" stroke-linejoin="round"/>
<path d="M50.6022 57.8436V65.7785H34.7324V57.8436C34.7324 53.4612 38.285 49.9087 42.6673 49.9087C47.0497 49.9087 50.6022 53.4612 50.6022 57.8436Z" stroke="black" stroke-width="1.25" stroke-linecap="round" stroke-linejoin="round"/>
<path d="M50.6022 61.8115H34.7324" stroke="black" stroke-width="1.25" stroke-linecap="round" stroke-linejoin="round"/>
<path d="M55.9948 57.8436H64.3473C61.6034 53.1002 56.4755 49.9087 50.6016 49.9087V57.8436H53.1432H55.9948Z" stroke="black" stroke-width="1.25" stroke-linecap="round" stroke-linejoin="round"/>
<path d="M55.9948 57.8438H50.6016V65.7786H66.4714C66.4714 62.8879 65.6981 60.1782 64.3479 57.8438H55.9954H55.9948Z" stroke="black" stroke-width="1.25" stroke-linecap="round" stroke-linejoin="round"/>
<path d="M54.5699 58.9597C55.1862 58.9597 55.6858 58.4601 55.6858 57.8439C55.6858 57.2276 55.1862 56.728 54.5699 56.728C53.9537 56.728 53.4541 57.2276 53.4541 57.8439C53.4541 58.4601 53.9537 58.9597 54.5699 58.9597Z" fill="black"/>
<path d="M60.5201 45.0471C61.1364 45.0471 61.636 44.5475 61.636 43.9313C61.636 43.315 61.1364 42.8154 60.5201 42.8154C59.9039 42.8154 59.4043 43.315 59.4043 43.9313C59.4043 44.5475 59.9039 45.0471 60.5201 45.0471Z" fill="black"/>
</svg>



