<svg width="19" height="19" viewBox="0 0 19 19" fill="none" xmlns="http://www.w3.org/2000/svg">
<g id="UrWallet Regular" clip-path="url(#clip0_395_2547)">
<path id="Vector" d="M17.1859 5.2273C17.6669 5.2273 18.0584 5.6188 18.0584 6.09977V16.4412C18.0584 16.9221 17.6669 17.3136 17.1859 17.3136H2.38982C1.90885 17.3136 1.51735 16.9221 1.51735 16.4412V6.0993C1.51735 5.61832 1.90885 5.22682 2.38982 5.22682H17.1864M17.1859 4.38133H2.38982C1.44066 4.38133 0.671387 5.15061 0.671387 6.0993V16.4407C0.671387 17.3899 1.44066 18.1587 2.38982 18.1587H17.1864C18.1355 18.1587 18.9043 17.3894 18.9043 16.4407V6.0993C18.9043 5.15013 18.1351 4.38086 17.1864 4.38086L17.1859 4.38133Z" fill="black"/>
<path id="Vector_2" d="M16.3236 4.70211V2.05061C16.3236 1.19707 15.4956 0.588278 14.6809 0.842493L2.0459 4.78543" stroke="black" stroke-width="0.845964" stroke-miterlimit="10"/>
<path id="Vector_3" d="M6.61214 12.3453C6.48763 12.3453 6.38348 12.3061 6.29875 12.227C6.21401 12.1479 6.17188 12.0466 6.17188 11.9221C6.17188 11.7976 6.21685 11.6906 6.30727 11.6002L7.18779 10.7367C7.39088 10.5337 7.60249 10.3841 7.82262 10.288C8.04275 10.1923 8.27708 10.144 8.52561 10.144C8.77415 10.144 8.99144 10.1895 9.21157 10.2794C9.4317 10.3699 9.64331 10.5166 9.8464 10.7197L10.3207 11.194C10.4448 11.3185 10.5664 11.4085 10.6848 11.4648C10.8031 11.5216 10.9243 11.5496 11.0488 11.5496C11.1842 11.5496 11.3111 11.5216 11.4299 11.4648C11.5483 11.4085 11.6695 11.3181 11.794 11.194L12.6574 10.3306C12.7479 10.2401 12.8492 10.1952 12.9623 10.1952C13.0863 10.1952 13.191 10.2349 13.2757 10.3135C13.3604 10.3926 13.4026 10.4944 13.4026 10.6184C13.4026 10.7424 13.3571 10.8499 13.2672 10.9403L12.3867 11.8038C12.1836 12.0069 11.972 12.1569 11.7518 12.2526C11.5317 12.3487 11.2974 12.3965 11.0488 12.3965C10.8003 12.3965 10.583 12.3515 10.3629 12.2611C10.1427 12.1707 9.93114 12.0239 9.72805 11.8208L9.2537 11.3465C9.1292 11.2224 9.00801 11.132 8.88966 11.0757C8.77131 11.0194 8.64964 10.991 8.52561 10.991C8.39022 10.991 8.26335 11.0194 8.14453 11.0757C8.02618 11.1325 7.90451 11.2224 7.78048 11.3465L6.91701 12.21C6.82659 12.3004 6.7248 12.3453 6.61214 12.3453Z" fill="black"/>
</g>
<defs>
<clipPath id="clip0_395_2547">
<rect width="18.233" height="17.7974" fill="white" transform="translate(0.671387 0.361328)"/>
</clipPath>
</defs>
</svg>
