<svg width="31" height="31" viewBox="0 0 31 31" fill="none" xmlns="http://www.w3.org/2000/svg">
<circle cx="15.6711" cy="15.4485" r="15.1272" fill="#C3CDC3"/>
<path d="M18.9156 23.5709H12.1218C11.0397 23.5709 10.1592 22.6903 10.1592 21.6082V11.3421C10.1592 11.0918 10.3619 10.8892 10.6121 10.8892H20.4253C20.6756 10.8892 20.8782 11.0918 20.8782 11.3421V21.6082C20.8782 22.6903 19.9977 23.5709 18.9156 23.5709ZM11.065 11.795V21.6082C11.065 22.191 11.5391 22.665 12.1218 22.665H18.9156C19.4984 22.665 19.9724 22.191 19.9724 21.6082V11.795H11.065Z" fill="white"/>
<path d="M21.4065 11.7952H9.63065C9.38042 11.7952 9.17773 11.5926 9.17773 11.3423V10.8894C9.17773 9.80731 10.0583 8.92676 11.1404 8.92676H19.8968C20.9789 8.92676 21.8595 9.80731 21.8595 10.8894V11.3423C21.8595 11.5926 21.6568 11.7952 21.4065 11.7952ZM10.0836 10.8894H20.9536C20.9536 10.3066 20.4796 9.83259 19.8968 9.83259H11.1404C10.5576 9.83259 10.0836 10.3066 10.0836 10.8894Z" fill="white"/>
<path d="M17.4808 9.83284C17.2305 9.83284 17.0278 9.63016 17.0278 9.37992V8.927C17.0278 8.34425 16.5538 7.87019 15.971 7.87019H15.0652C14.4824 7.87019 14.0084 8.34425 14.0084 8.927V9.37992C14.0084 9.63016 13.8057 9.83284 13.5555 9.83284C13.3052 9.83284 13.1025 9.63016 13.1025 9.37992V8.927C13.1025 7.8449 13.9831 6.96436 15.0652 6.96436H15.971C17.0531 6.96436 17.9337 7.8449 17.9337 8.927V9.37992C17.9337 9.63016 17.731 9.83284 17.4808 9.83284Z" fill="white"/>
<path d="M13.0662 20.6262C12.816 20.6262 12.6133 20.4235 12.6133 20.1733V13.304C12.6133 13.0538 12.816 12.8511 13.0662 12.8511C13.3164 12.8511 13.5191 13.0538 13.5191 13.304V20.1733C13.5191 20.4235 13.3164 20.6262 13.0662 20.6262Z" fill="white"/>
<path d="M15.5183 20.6262C15.2681 20.6262 15.0654 20.4235 15.0654 20.1733V13.304C15.0654 13.0538 15.2681 12.8511 15.5183 12.8511C15.7686 12.8511 15.9713 13.0538 15.9713 13.304V20.1733C15.9713 20.4235 15.7686 20.6262 15.5183 20.6262Z" fill="white"/>
<path d="M17.9724 20.6647C17.7222 20.6647 17.5195 20.4621 17.5195 20.2118V13.3426C17.5195 13.0923 17.7222 12.8896 17.9724 12.8896C18.2227 12.8896 18.4254 13.0923 18.4254 13.3426V20.2118C18.4254 20.4621 18.2227 20.6647 17.9724 20.6647Z" fill="white"/>
</svg>
