<svg width="32" height="31" viewBox="0 0 32 31" fill="none" xmlns="http://www.w3.org/2000/svg">
<circle cx="16.052" cy="15.4485" r="15.1272" fill="#C3CDC3"/>
<path d="M16.0506 20.3352C15.9347 20.3352 15.8188 20.291 15.7301 20.2027L11.8046 16.2772C11.6276 16.1002 11.6276 15.8137 11.8046 15.6367C11.9817 15.4597 12.2682 15.4597 12.4452 15.6367L16.0502 19.2417L19.6552 15.6367C19.8322 15.4597 20.1191 15.4597 20.2957 15.6367C20.4724 15.8137 20.4728 16.1002 20.2957 16.2772L16.3703 20.2027C16.2819 20.291 16.1661 20.3352 16.0498 20.3352H16.0506Z" fill="white"/>
<path d="M16.0525 20.335C15.8023 20.335 15.5996 20.1323 15.5996 19.8821V8.08038C15.5996 7.83013 15.8027 7.62744 16.0529 7.62744C16.3032 7.62744 16.5059 7.83013 16.5059 8.08038V19.8821C16.5059 20.1323 16.3028 20.335 16.0525 20.335Z" fill="white"/>
<path d="M22.3925 23.1668H9.70981C8.62766 23.1668 7.74707 22.2862 7.74707 21.2041V18.7884C7.74707 18.5381 7.94976 18.3354 8.19963 18.3354C8.44988 18.3354 8.65257 18.5381 8.65257 18.7884V21.2041C8.65257 21.7868 9.12702 22.2609 9.70943 22.2609H22.3917C22.9745 22.2609 23.4486 21.7868 23.4486 21.2041V18.7884C23.4486 18.5381 23.6513 18.3354 23.9011 18.3354C24.1514 18.3354 24.3541 18.5381 24.3541 18.7884V21.2041C24.3541 22.2862 23.4739 23.1668 22.3913 23.1668H22.3925Z" fill="white"/>
</svg>
