<svg width="18" height="22" viewBox="0 0 18 22" fill="none" xmlns="http://www.w3.org/2000/svg">
<path d="M14.8906 21.856H3.43219C2.0141 21.856 0.860352 20.7023 0.860352 19.2842V6.886L7.63112 0.115234H14.8906C16.3087 0.115234 17.4624 1.26898 17.4624 2.68707V19.2847C17.4624 20.7028 16.3087 21.8565 14.8906 21.8565V21.856ZM2.04621 7.37715V19.2842C2.04621 20.0481 2.6678 20.6702 3.43219 20.6702H14.8911C15.6554 20.6702 16.277 20.0486 16.277 19.2842V2.68707C16.277 1.92268 15.6554 1.3011 14.8911 1.3011H8.12276L2.04621 7.37715Z" fill="black"/>
<path d="M5.8996 7.72451H1.59098C1.26338 7.72451 0.998047 7.45917 0.998047 7.13158C0.998047 6.80398 1.26338 6.53865 1.59098 6.53865H5.8996C6.66251 6.53865 7.28311 5.91805 7.28311 5.15514V0.708165C7.28311 0.380571 7.54844 0.115234 7.87604 0.115234C8.20363 0.115234 8.46897 0.380571 8.46897 0.708165V5.15514C8.46897 6.57175 7.31621 7.72451 5.8996 7.72451Z" fill="black"/>
</svg>

