<svg width="31" height="31" viewBox="0 0 31 31" fill="none" xmlns="http://www.w3.org/2000/svg">
<circle cx="15.8196" cy="15.4485" r="15.1272" fill="#C3CDC3"/>
<path d="M8.5625 15.1915C8.5625 11.018 11.8848 7.62793 15.9748 7.62793C20.0648 7.62793 23.3871 11.018 23.3871 15.1915C23.3871 19.365 20.0648 22.7551 15.9748 22.7551C11.8848 22.7551 8.5625 19.365 8.5625 15.1915ZM12.0172 14.6513C12.0569 13.6113 12.1892 12.6253 12.4275 11.7474C11.898 11.5853 11.4083 11.4097 10.9715 11.1936C10.2303 12.1526 9.75377 13.3546 9.64787 14.6513H12.0172ZM12.4275 18.6357C12.1892 17.7577 12.0569 16.7718 12.0172 15.7318H9.64787C9.75377 17.0284 10.2303 18.2305 10.9715 19.1894C11.4083 18.9733 11.898 18.7977 12.4275 18.6357ZM13.4996 9.22169C12.8511 9.49181 12.2687 9.8835 11.7524 10.3562C12.0569 10.4913 12.401 10.6128 12.7584 10.7074C12.9702 10.1536 13.2217 9.64038 13.4996 9.22169ZM12.7584 19.6756C12.401 19.7702 12.0569 19.8917 11.7524 20.0268C12.2687 20.4995 12.8511 20.8912 13.4996 21.1614C13.2217 20.7427 12.9702 20.2294 12.7584 19.6756ZM15.4454 14.6513V12.2066C14.7571 12.1796 14.082 12.1121 13.4467 11.9905C13.2481 12.7739 13.1158 13.6788 13.0761 14.6513H15.4454ZM15.4454 18.1764V15.7318H13.0761C13.1158 16.7042 13.2481 17.6092 13.4467 18.3925C14.082 18.271 14.7571 18.2034 15.4454 18.1764ZM15.4454 8.81649C14.81 9.10013 14.2276 9.85649 13.7908 10.9505C14.3203 11.045 14.8762 11.0991 15.4454 11.1261V8.81649ZM15.4454 19.2569C14.8762 19.284 14.3203 19.338 13.7908 19.4325C14.2276 20.5265 14.81 21.2829 15.4454 21.5665V19.2569ZM18.1588 10.9505C17.722 9.85649 17.1396 9.10013 16.5043 8.81649V11.1261C17.0734 11.0991 17.6294 11.045 18.1588 10.9505ZM18.8736 14.6513C18.8339 13.6788 18.7015 12.7739 18.5029 11.9905C17.8676 12.1121 17.1926 12.1796 16.5043 12.2066V14.6513H18.8736ZM18.8736 15.7318H16.5043V18.1764C17.1926 18.2034 17.8676 18.271 18.5029 18.3925C18.7015 17.6092 18.8339 16.7042 18.8736 15.7318ZM18.1588 19.4325C17.6294 19.338 17.0734 19.284 16.5043 19.2569V21.5665C17.1396 21.2829 17.722 20.5265 18.1588 19.4325ZM20.1972 10.3562C19.681 9.8835 19.0986 9.49181 18.45 9.22169C18.728 9.64038 18.9795 10.1536 19.1912 10.7074C19.5486 10.6128 19.8928 10.4913 20.1972 10.3562ZM20.1972 20.0268C19.8928 19.8917 19.5486 19.7702 19.1912 19.6756C18.9795 20.2294 18.728 20.7427 18.45 21.1614C19.0986 20.8912 19.681 20.4995 20.1972 20.0268ZM22.3018 14.6513C22.1959 13.3546 21.7194 12.1526 20.9781 11.1936C20.5413 11.4097 20.0516 11.5853 19.5221 11.7474C19.7604 12.6253 19.8928 13.6113 19.9325 14.6513H22.3018ZM22.3018 15.7318H19.9325C19.8928 16.7718 19.7604 17.7577 19.5221 18.6357C20.0516 18.7977 20.5413 18.9733 20.9781 19.1894C21.7194 18.2305 22.1959 17.0284 22.3018 15.7318Z" fill="white"/>
</svg>
