<svg width="16" height="19" viewBox="0 0 16 19" fill="none" xmlns="http://www.w3.org/2000/svg">
<g id="Group">
<path id="Vector" d="M11.3348 10.013C12.2379 9.81639 12.9274 9.22871 13.1331 7.99701C13.4166 6.31438 12.1648 5.38925 10.4403 4.75925L11.0498 2.48326L9.68118 2.11653L9.08701 4.33248C8.72691 4.236 8.35791 4.1448 7.9905 4.05431L8.58782 1.82389L7.22046 1.45737L6.61053 3.73265C6.31254 3.65937 6.01996 3.58721 5.73579 3.51107L5.73759 3.50434L3.85002 2.99773L3.45389 4.47716C3.45389 4.47716 4.46975 4.72873 4.44809 4.74295C5.00214 4.89182 5.09579 5.26611 5.07247 5.56128L4.37818 8.15412L3.40232 11.7961C3.33063 11.966 3.1524 12.2205 2.76478 12.1172C2.7782 12.1376 1.76924 11.8503 1.76924 11.8503L1.05451 13.4318L2.83527 13.9089C3.16699 13.9982 3.49162 14.0908 3.81078 14.1791L3.19524 16.4811L4.56219 16.8478L5.17207 14.5701C5.5461 14.6787 5.90823 14.7793 6.26296 14.8738L5.65517 17.1406L7.02375 17.5073L7.64022 15.2097C9.97657 15.6924 11.7443 15.5372 12.5307 13.4035C13.1639 11.6858 12.5559 10.6803 11.3348 10.013ZM7.58685 5.6916C8.35874 5.89843 10.853 6.30004 10.4159 7.93263C9.99621 9.49764 7.61838 8.66454 6.84573 8.4575L7.58685 5.6916ZM5.65383 12.9033L6.47158 9.85383C7.39906 10.1021 10.3802 10.6116 9.89981 12.406C9.43912 14.1268 6.58202 13.1513 5.65383 12.9033Z" fill="white"/>
</g>
</svg>
