<svg width="12" height="19" viewBox="0 0 12 19" fill="none" xmlns="http://www.w3.org/2000/svg">
<g id="Ethereum" clip-path="url(#clip0_407_3798)">
<path id="Vector" d="M8.79103 13.6343L6.00004 17.7602L3.20904 13.6343L5.44885 15.0202L5.45596 15.0246L5.46307 15.0291C5.62658 15.1255 5.81188 15.1766 5.99956 15.1766C6.18724 15.1766 6.37255 15.1255 6.53606 15.0291L6.54316 15.0246L6.55027 15.0202L8.79008 13.6343M10.6157 11.5723C10.5692 11.5723 10.5204 11.5847 10.4725 11.613L6.14174 14.2929C6.09767 14.3188 6.04885 14.3317 6.00051 14.3317C5.95217 14.3317 5.90288 14.3188 5.85928 14.2929L1.52847 11.613C1.48013 11.5847 1.43179 11.5723 1.38534 11.5723C1.17207 11.5723 1.00525 11.837 1.15264 12.0526L5.76639 18.8739C5.82373 18.9579 5.91236 19.0001 6.00098 19.0001C6.08961 19.0001 6.17776 18.9579 6.23558 18.8739L10.8493 12.0526C10.9972 11.8365 10.8299 11.5723 10.6166 11.5723H10.6157Z" fill="white"/>
<path id="Vector_2" d="M6.37692 0.641936L11.5945 9.62408C11.6016 9.6365 11.5978 9.65239 11.5859 9.65985L6.01104 12.7292C6.00488 12.7332 5.99683 12.7332 5.99066 12.7292L0.415783 9.79049C0.403935 9.78354 0.399669 9.76714 0.406778 9.75472L5.62811 0.644419C5.7973 0.348856 6.20583 0.347366 6.37692 0.641936Z" stroke="white" stroke-width="1.00047" stroke-miterlimit="10"/>
<path id="Vector_3" d="M0.415039 9.79067L5.62262 7.41176C5.86385 7.30149 6.13684 7.299 6.37997 7.40431L11.5852 9.66053" stroke="white" stroke-width="1.00047" stroke-miterlimit="10"/>
<path id="Vector_4" d="M6 12.7299V0.438965" stroke="white" stroke-width="1.00047" stroke-miterlimit="10"/>
<path id="Vector_5" d="M6 14.5176V18.1612" stroke="white" stroke-width="1.00047" stroke-miterlimit="10"/>
</g>
<defs>
<clipPath id="clip0_407_3798">
<rect width="12" height="19" fill="white"/>
</clipPath>
</defs>
</svg>
