<svg width="31" height="31" viewBox="0 0 31 31" fill="none" xmlns="http://www.w3.org/2000/svg">
<rect x="0.586914" y="0.438477" width="30.2563" height="30.2563" rx="15.1282" fill="#CFCFCF"/>
<path d="M8.29883 16.0551C12.4041 16.0551 15.7319 12.7271 15.7319 8.62207H8.29883V16.0551Z" stroke="white" stroke-width="0.64396" stroke-miterlimit="10"/>
<path d="M15.7376 16.052C15.7393 11.9482 19.0665 8.62207 23.1706 8.62207C23.1706 12.7266 19.8436 16.0543 15.7391 16.0551H15.7373V16.052H15.7376Z" stroke="white" stroke-width="0.64396" stroke-miterlimit="10"/>
<path d="M20.3838 11.4101L22.2419 9.55176" stroke="white" stroke-width="0.64396" stroke-miterlimit="10" stroke-linecap="round"/>
<path d="M15.7328 16.063H8.2998V23.496H15.7328V16.063Z" stroke="white" stroke-width="0.64396" stroke-miterlimit="10"/>
<path d="M15.7328 16.063L8.2998 23.4963" stroke="white" stroke-width="0.64396" stroke-miterlimit="10"/>
<path d="M8.25781 17.9204C9.7868 17.9204 11.1721 18.536 12.1792 19.5327M8.25781 19.7787C9.27357 19.7787 10.1943 20.1863 10.8652 20.847M8.25781 21.6371C8.7606 21.6371 9.21652 21.8367 9.5512 22.161" stroke="white" stroke-width="0.64396" stroke-miterlimit="10"/>
<path d="M8.2998 16.063C10.3527 16.063 12.2113 16.8951 13.5564 18.2407" stroke="white" stroke-width="0.64396" stroke-miterlimit="10"/>
<path d="M19.4549 23.4963C21.5076 23.4963 23.1716 21.8323 23.1716 19.7796C23.1716 17.727 21.5076 16.063 19.4549 16.063C17.4023 16.063 15.7383 17.727 15.7383 19.7796C15.7383 21.8323 17.4023 23.4963 19.4549 23.4963Z" stroke="white" stroke-width="0.64396" stroke-miterlimit="10"/>
<path d="M19.6559 19.7795C19.6559 19.8903 19.5661 19.9802 19.4553 19.9802C19.3444 19.9802 19.2546 19.8903 19.2546 19.7795C19.2546 19.6687 19.3444 19.5788 19.4553 19.5788C19.5661 19.5788 19.6559 19.6687 19.6559 19.7795Z" fill="white" stroke="white" stroke-width="0.64396"/>
</svg>
