<svg width="32" height="31" viewBox="0 0 32 31" fill="none" xmlns="http://www.w3.org/2000/svg">
<rect x="0.817383" y="0.438477" width="30.2563" height="30.2563" rx="15.1282" fill="#C3CDC3"/>
<path d="M15.9591 11.7642H8.50195" stroke="white" stroke-width="0.587372" stroke-linecap="round" stroke-linejoin="round"/>
<path d="M12.2312 12.6963C11.0578 12.6963 10.0536 13.4189 9.63867 14.4433C10.3097 15.0928 11.2237 15.4925 12.2312 15.4925C13.2387 15.4925 14.1527 15.0926 14.8237 14.4433C14.4088 13.4189 13.4043 12.6963 12.2312 12.6963Z" stroke="white" stroke-width="0.587372" stroke-linecap="round" stroke-linejoin="round"/>
<path d="M15.9591 11.7637C15.9591 9.70449 14.2898 8.03516 12.2305 8.03516C10.1713 8.03516 8.50195 9.70449 8.50195 11.7637C8.50195 12.8155 8.93736 13.7653 9.63775 14.4429C10.0527 13.4185 11.0572 12.6959 12.2303 12.6959C13.4034 12.6959 14.4079 13.4185 14.8228 14.4429C15.5232 13.765 15.9586 12.8152 15.9586 11.7637H15.9591Z" stroke="white" stroke-width="0.587372" stroke-linecap="round" stroke-linejoin="round"/>
<path d="M23.4032 15.4796C23.4032 11.3611 20.0646 8.02272 15.9463 8.02246V15.4794H23.4032V15.4796Z" stroke="white" stroke-width="0.587372" stroke-linecap="round" stroke-linejoin="round"/>
<path d="M15.9463 8.02246L23.4032 15.4794" stroke="white" stroke-width="0.587372" stroke-linecap="round" stroke-linejoin="round"/>
<path d="M15.9464 19.2203V22.9489H8.48926V19.2203C8.48926 17.161 10.1586 15.4917 12.2179 15.4917C14.2771 15.4917 15.9464 17.161 15.9464 19.2203Z" stroke="white" stroke-width="0.587372" stroke-linecap="round" stroke-linejoin="round"/>
<path d="M15.9464 21.0854H8.48926" stroke="white" stroke-width="0.587372" stroke-linecap="round" stroke-linejoin="round"/>
<path d="M18.4806 19.2203H22.4054C21.116 16.9914 18.7064 15.4917 15.9463 15.4917V19.2203H17.1406H18.4806Z" stroke="white" stroke-width="0.587372" stroke-linecap="round" stroke-linejoin="round"/>
<path d="M18.4806 19.2207H15.9463V22.9493H23.4035C23.4035 21.5909 23.0401 20.3177 22.4057 19.2207H18.4808H18.4806Z" stroke="white" stroke-width="0.587372" stroke-linecap="round" stroke-linejoin="round"/>
<path d="M17.8114 19.7454C18.101 19.7454 18.3358 19.5107 18.3358 19.2211C18.3358 18.9315 18.101 18.6968 17.8114 18.6968C17.5219 18.6968 17.2871 18.9315 17.2871 19.2211C17.2871 19.5107 17.5219 19.7454 17.8114 19.7454Z" fill="white"/>
<path d="M20.6073 13.2074C20.8969 13.2074 21.1317 12.9726 21.1317 12.683C21.1317 12.3934 20.8969 12.1587 20.6073 12.1587C20.3178 12.1587 20.083 12.3934 20.083 12.683C20.083 12.9726 20.3178 13.2074 20.6073 13.2074Z" fill="white"/>
</svg>

