<svg width="28" height="29" viewBox="0 0 28 29" fill="none" xmlns="http://www.w3.org/2000/svg">
<g id="usd-coin-usdc-logo 1" clip-path="url(#clip0_407_3839)">
<path id="Vector" d="M14 28.666C21.7584 28.666 28 22.4244 28 14.666C28 6.90764 21.7584 0.666016 14 0.666016C6.24162 0.666016 0 6.90764 0 14.666C0 22.4244 6.24162 28.666 14 28.666Z" fill="#5A5A55"/>
<path id="Vector_2" d="M17.8498 16.8827C17.8498 14.8411 16.6248 14.1411 14.1748 13.8495C12.4248 13.6161 12.0748 13.1495 12.0748 12.3327C12.0748 11.516 12.6582 10.9911 13.8248 10.9911C14.8748 10.9911 15.4582 11.3411 15.7498 12.2161C15.8082 12.3911 15.9832 12.5077 16.1582 12.5077H17.0914C17.3248 12.5077 17.4998 12.3327 17.4998 12.0995V12.0411C17.2664 10.7577 16.2164 9.76609 14.8748 9.64947V8.24947C14.8748 8.01609 14.6998 7.84109 14.4082 7.78271H13.5332C13.2998 7.78271 13.1248 7.95771 13.0664 8.24947V9.59109C11.3164 9.82447 10.2082 10.9911 10.2082 12.4495C10.2082 14.3745 11.3748 15.1327 13.8248 15.4245C15.4582 15.7161 15.9832 16.0661 15.9832 16.9995C15.9832 17.9329 15.1664 18.5745 14.0582 18.5745C12.5414 18.5745 12.0164 17.9327 11.8414 17.0577C11.7832 16.8245 11.6082 16.7077 11.4332 16.7077H10.4414C10.2082 16.7077 10.0332 16.8827 10.0332 17.1161V17.1745C10.2664 18.6327 11.1998 19.6827 13.1248 19.9745V21.3745C13.1248 21.6077 13.2998 21.7827 13.5914 21.8411H14.4664C14.6998 21.8411 14.8748 21.6661 14.9332 21.3745V19.9745C16.6832 19.6827 17.8498 18.4577 17.8498 16.8827Z" fill="white"/>
<path id="Vector_3" d="M11.0252 23.0078C6.47516 21.3745 4.14178 16.2995 5.83354 11.8078C6.70854 9.35775 8.63354 7.49113 11.0252 6.61613C11.2585 6.49951 11.3752 6.32451 11.3752 6.03275V5.21613C11.3752 4.98275 11.2585 4.80775 11.0252 4.74951C10.9668 4.74951 10.8502 4.74951 10.7918 4.80775C5.25016 6.55775 2.21678 12.4495 3.96678 17.9911C5.01678 21.2578 7.52516 23.7661 10.7918 24.8161C11.0252 24.9328 11.2585 24.8161 11.3168 24.5828C11.3752 24.5245 11.3752 24.4661 11.3752 24.3495V23.5328C11.3752 23.3578 11.2002 23.1245 11.0252 23.0078ZM17.2085 4.80775C16.9752 4.69113 16.7418 4.80775 16.6835 5.04113C16.6252 5.09951 16.6252 5.15775 16.6252 5.27451V6.09113C16.6252 6.32451 16.8002 6.55775 16.9752 6.67451C21.5252 8.30775 23.8585 13.3828 22.1668 17.8745C21.2918 20.3245 19.3668 22.1911 16.9752 23.0661C16.7418 23.1828 16.6252 23.3578 16.6252 23.6495V24.4661C16.6252 24.6995 16.7418 24.8745 16.9752 24.9328C17.0335 24.9328 17.1502 24.9328 17.2085 24.8745C22.7502 23.1245 25.7835 17.2328 24.0335 11.6911C22.9835 8.36613 20.4168 5.85775 17.2085 4.80775Z" fill="white"/>
</g>
<defs>
<clipPath id="clip0_407_3839">
<rect width="28" height="28" fill="white" transform="translate(0 0.666016)"/>
</clipPath>
</defs>
</svg>
